<svg height="5.5rem" width="5.5rem" xmlns="http://www.w3.org/2000/svg" xmlns:xlink="http://www.w3.org/1999/xlink" version="1.1" id="Layer_1" x="0px" y="0px" viewBox="-280 1344.5835 250 192.32239" style="enable-background:new -280 1344.5835 250 192.32239;" xml:space="preserve" class="id-0086b3bd-21ca-4f24-a093-771bd20b7416">
<style type="text/css" style="fill: #03082f">
	.id-0086b3bd-21ca-4f24-a093-771bd20b7416 .st0{fill:#C6CACE;}
	.id-0086b3bd-21ca-4f24-a093-771bd20b7416 .st1{fill:#737A81;}
	.id-0086b3bd-21ca-4f24-a093-771bd20b7416 .st2{fill:#DE2F21;}
	.id-0086b3bd-21ca-4f24-a093-771bd20b7416 .st3{fill:#A72319;}
	.id-0086b3bd-21ca-4f24-a093-771bd20b7416 .st4{fill:#383838;}
	.id-0086b3bd-21ca-4f24-a093-771bd20b7416 .st5{fill:#1A1A16;}
	.id-0086b3bd-21ca-4f24-a093-771bd20b7416 .st6{fill:#88919A;}
	.id-0086b3bd-21ca-4f24-a093-771bd20b7416 .st7{fill:#ADB4BA;}
	.id-0086b3bd-21ca-4f24-a093-771bd20b7416 .st8{fill:#454753;}
	.id-0086b3bd-21ca-4f24-a093-771bd20b7416 .st9{fill:#FF7526;}
	.id-0086b3bd-21ca-4f24-a093-771bd20b7416 .st10{fill:#E3A91B;}
	.id-0086b3bd-21ca-4f24-a093-771bd20b7416 .st11{fill:#BDBDBD;}
	.id-0086b3bd-21ca-4f24-a093-771bd20b7416 .st12{fill:#FFCB00;}
	.id-0086b3bd-21ca-4f24-a093-771bd20b7416 .st13{fill:#888888;}
	.id-0086b3bd-21ca-4f24-a093-771bd20b7416 .st14{fill:#1A1A1A;}
	.id-0086b3bd-21ca-4f24-a093-771bd20b7416 .st15{fill:#8FD2E5;}
	.id-0086b3bd-21ca-4f24-a093-771bd20b7416 .st16{fill:#FF6E63;}
	.id-0086b3bd-21ca-4f24-a093-771bd20b7416 .st17{fill:#474747;}
	.id-0086b3bd-21ca-4f24-a093-771bd20b7416 .st18{fill:#626262;}
	.id-0086b3bd-21ca-4f24-a093-771bd20b7416 .st19{fill:#9E9E9E;}
	.id-0086b3bd-21ca-4f24-a093-771bd20b7416 .st20{fill:#525252;}
	.id-0086b3bd-21ca-4f24-a093-771bd20b7416 .st21{fill:none;stroke:#000000;stroke-miterlimit:10;}
	.id-0086b3bd-21ca-4f24-a093-771bd20b7416 .st22{fill:#464646;}
	.id-0086b3bd-21ca-4f24-a093-771bd20b7416 .st23{fill:#929292;}
	.id-0086b3bd-21ca-4f24-a093-771bd20b7416 .st24{fill:none;stroke:#000000;stroke-width:3;stroke-miterlimit:10;}
	.id-0086b3bd-21ca-4f24-a093-771bd20b7416 .st25{fill:none;stroke:#000000;stroke-width:2;stroke-linecap:round;stroke-miterlimit:10;}
	.id-0086b3bd-21ca-4f24-a093-771bd20b7416 .st26{fill:none;stroke:#000000;stroke-linejoin:round;stroke-miterlimit:10;}
	.id-0086b3bd-21ca-4f24-a093-771bd20b7416 .st27{fill:none;stroke:#000000;stroke-width:3;stroke-linejoin:round;stroke-miterlimit:10;}
	.id-0086b3bd-21ca-4f24-a093-771bd20b7416 .st28{fill:none;stroke:#000000;stroke-width:5;stroke-linejoin:round;stroke-miterlimit:10;}
	.id-0086b3bd-21ca-4f24-a093-771bd20b7416 .st29{fill:none;stroke:#000000;stroke-width:1.7;stroke-linecap:round;stroke-miterlimit:10;}
	.id-0086b3bd-21ca-4f24-a093-771bd20b7416 .st30{fill:none;stroke:#000000;stroke-width:2;stroke-miterlimit:10;}
	.id-0086b3bd-21ca-4f24-a093-771bd20b7416 .st31{fill:none;stroke:#000000;stroke-width:2;stroke-linejoin:round;stroke-miterlimit:10;}
	.id-0086b3bd-21ca-4f24-a093-771bd20b7416 .st32{fill:none;stroke:#000000;stroke-width:6;stroke-miterlimit:10;}
	.id-0086b3bd-21ca-4f24-a093-771bd20b7416 .st33{fill:#606060;}
	.id-0086b3bd-21ca-4f24-a093-771bd20b7416 .st34{fill:none;stroke:#000000;stroke-width:5;stroke-miterlimit:10;}
	.id-0086b3bd-21ca-4f24-a093-771bd20b7416 .st35{fill:#D3E8EB;}
	.id-0086b3bd-21ca-4f24-a093-771bd20b7416 .st36{fill:#457985;}
	.id-0086b3bd-21ca-4f24-a093-771bd20b7416 .st37{fill:#5CA1B0;}
	.id-0086b3bd-21ca-4f24-a093-771bd20b7416 .st38{fill:#7FBFC9;}
</style>
<path d="M-108.24032,1516.32581  c-1.57349-1.37939-3.13915-2.75464-4.71723-4.13452c2.92588,0.29565,5.7083,0.54773,8.66573,0.85437  c4.34386,0.45044,8.36227,1.11902,11.74139,4.12683c0.75449-7.24451,1.21117-14.35315,0.15353-21.57825  c-0.42867-2.92834-1.3702-5.55237-2.41305-8.28784c5.82531,0.59192,4.88821-1.36023,10.71383-0.78845  c0.28491,0.02795,0.62218,0.1156,0.82641-0.11646c0.89565-1.01746-0.81716-2.20703-0.218-3.41333  c1.10788-0.02051,1.89573-0.72974,2.19806-1.77832c0.30233-1.04871,0.07959-2.02161-0.0275-3.08105  c-0.46964-4.64294-0.05466-8.94458,1.29272-13.41699c-1.67422,3.47351-2.89651,6.97729-3.71446,10.75439  c-0.42671,1.97034-0.83846,3.95654-2.76959,4.92896c-0.47,0.23657-0.94049,0.22449-1.29851,0.60498  c-0.25407,0.2699-0.28593,0.61914-0.51456,0.88953c-0.37533,0.44336-0.88982,0.66003-1.46523,0.72632  c-4.74759,0.54651-2.33175,1.78894-6.9512,0.89893c-0.65959-1.02686-1.21952-2.05017-1.98986-3.02368  c-1.39172-1.75854-2.40787-3.90381-4.90089-4.28589c-2.92902-0.4491-6.43069,1.59314-9.07529,2.3219  c-12.86891,3.54626-25.64752,5.24719-38.89688,5.29565c-3.09128,0.01123-6.0582-0.11047-9.15302,0.41638  c-2.42073,0.41211-4.46686,1.14404-7.03998,1.60291c-3.03734,0.54163-6.50186,1.46997-8.86406,3.74597  c-1.70174-1.58044-3.70738-3.58936-5.80952-4.39856c-0.59874-0.23059-0.70866-0.12561-1.12836-0.06165  c-0.41969,0.06409-0.48746,0.33887-0.78816,0.52502c-0.05017,0.03101-0.05995,0.08301-0.11417,0.10669  c-5.30908-5.02588-10.77327-10.23792-16.10231-15.12939c-0.31561-0.28979-0.61497-0.56348-0.90956-0.82837l5.76147-0.64709  l-6.82574-0.26343c-0.79572-0.64038-1.61308-1.1875-2.6154-1.62952c-2.32437-1.02515-4.71335-1.03552-7.16064-1.04089  c-3.24715-0.00708-6.47327,0.05701-9.69707,0.15552l23.23-11.53638l-28.19997,9.04883l20.42027-21.45068l-23.40439,18.14807  l11.85225-27.14111l-15.78589,25.05847l1.8546-29.55811l-6.26341,28.94629l-8.3667-28.40979l4.01457,29.34277l-17.57887-23.83484  l13.80832,26.2002l-24.67075-16.38525l21.93652,19.89758l-28.78693-6.95923l27.4189,11.1947L-280,1472.24426l29.59421,1.14185  l-26.52539,13.17285l28.2-9.04895l-20.42033,21.45068l23.4044-18.14819l-11.85222,27.14124l15.78593-25.05835l-1.85466,29.55811  l6.2634-28.94641l8.36667,28.40991l-4.01448-29.3429l17.57883,23.83496l-13.80826-26.2002l24.67073,16.38525l-21.93657-19.89758  l28.78702,6.95923l-27.1404-11.08105c3.55341-0.11499,7.1076-0.19446,10.67647-0.19348  c2.44135,0.00073,4.87675,0.05396,7.15245,1.03284c1.77522,0.76367,3.16322,2.0647,4.56569,3.34741  c4.74724,4.34167,9.39935,8.77319,14.07069,13.18604c-0.25279,0.33008-0.55142,0.61096-0.78659,0.95422  c-0.13751,0.20068-0.34662,0.33716-0.34087,0.6261c0.00995,0.50793,0.07477,0.66284,0.50455,1.14478  c2.17471,2.43921,4.69312,4.9386,7.22285,7.11646c-3.01021,2.92505-5.82782,5.97864-8.39861,9.29907  c-0.41083,0.5304-0.83511,1.07617-0.82568,1.77808c0.01358,0.9989,0.71158,1.69885,1.44083,2.33142  c1.65468,1.4353,3.36813,2.79407,5.64438,2.63196c1.10258-0.07861,1.95435-0.69385,2.85365-1.22937  c2.67412-1.59253,5.28186-3.2749,7.94017-4.88574c-2.18916,3.19873-4.70369,5.95667-7.64679,8.46985  c-0.55833,0.47668-1.17401,0.90344-1.38503,1.62756c-0.30055,1.03149,0.18018,2.06409,1.0806,2.62488  c0.90041,0.56079,1.8846,0.76587,2.96657,0.65808c5.39403-0.53699,9.40044-3.38538,13.60922-6.61877  c-2.79649,3.87195-6.10999,6.45825-10.53781,8.25378c1.29434,2.49207,3.93593,2.85071,6.52504,2.66077  c4.08353-0.29968,7.89932-1.19861,11.78333-2.41541c-2.82367,3.1377-6.09428,4.43018-10.29968,4.06458  c3.75948,2.08801,7.52054,3.08765,11.81245,2.91919c1.2773-0.05017,2.45612-0.31274,3.56813-0.83911  c1.11203-0.52637,1.95633-1.33435,2.83798-2.13501c2.67165-2.42615,5.2993-4.86658,7.95226-7.30603  c0.30443-0.27991,0.62015-0.56006,0.72592-0.97778c0.1515-0.59839-0.1208-1.1488-0.4044-1.66785  c-1.23439-2.25916-2.47594-4.52466-3.71912-6.76147c2.70625,1.52014,4.08006,4.74316,7.14948,5.63733  c2.14319,0.62439,4.16647-0.6333,6.25816-1.07593c1.74048-0.36829,3.54339-0.4541,5.33688-0.45569  C-119.7896,1516.37231-114.01659,1516.33716-108.24032,1516.32581z M-173.8821,1492.33167  c-0.80679-0.8186-1.63106-1.64062-2.46532-2.4397c0.78888,0.2218,1.57797,0.44373,2.36702,0.66602  c0.19939,0.58875,0.24924,1.14453,0.10802,1.74939C-173.87469,1492.31763-173.87428,1492.33948-173.8821,1492.33167z   M-213.12944,1412.38049c4.83594,0.15723,9.61911,0.00342,14.43668-0.44434c-2.69942,5.05615-5.3681,10.12817-8.04132,15.19824  C-209.15526,1422.35486-211.13567,1417.34924-213.12944,1412.38049z M-170.0006,1434.17505  c-4.554,0.12512-8.94974,0.70227-13.38573,1.74731c2.37633-4.39844,4.76564-8.78088,7.13745-13.18738  c0.46788,1.25867,0.8369,2.27942,1.37027,3.56836c1.0369,2.5061,2.28926,4.96436,4.0993,7.07898  C-170.55238,1433.64746-170.25092,1433.92505-170.0006,1434.17505z M-178.88478,1414.05933  c-4.4828,8.37817-9.05006,16.71289-13.48224,25.1178c-0.57854,0.29114-1.13942,0.55859-1.72067,0.88086  c-0.84993-1.16528-2.16872-1.47412-2.77382-3.12512c3.48904-6.68555,12.10191-22.65234,14.47627-27.08289  c0.21921-0.40918,0.40221-0.75061,0.55452-1.03491c0.86237-1.26074,0.99251-0.70923,1.57613-1.30933  c0.04839,0.39062,0.11711,0.74719,0.18401,1.10974C-179.73273,1410.44812-179.33064,1412.25293-178.88478,1414.05933z   M-30.8464,1513.94019c0.8938-7.65405-0.54674-15.02002,0.22516-22.5321c0.33025-3.21448,0.91158-6.14709,0.44979-9.32983  c-0.28261-1.94861-1.1641-3.77478-1.70192-5.65576c-1.19106-4.16528-1.79662-8.276-1.34015-12.59167  c0.2458-2.32275,0.8873-4.48035,0.53433-6.8335c-0.56612-3.77502-2.92077-7.13928-3.02168-10.99768  c-0.05227-1.99988,0.83083-3.83533,0.21636-5.81213c-0.32831-1.05603-0.96128-1.90063-1.66378-2.77856  c-5.54043-6.92383-11.16531-13.40039-18.88824-17.92603c-4.08382-2.39319-8.65627-3.7926-12.5386-6.49744  c-1.91143-1.33167-3.37526-3.08105-5.42932-4.20508c-7.42973-4.06543-16.276-3.7854-23.77785-7.63708  c-1.68307-0.86414-2.90128-2.42639-4.65244-2.9325c-5.56516-1.60803-11.70831,3.11743-16.33886-1.12537  c-1.4562-1.33423-1.61804-3.474-2.12658-5.31409c-0.79552-2.87793-1.25243-5.98218-1.98349-8.89709  c-3.9535,3.29968-7.94907,6.59436-11.91274,9.90051c-0.16278,0.13562-0.32471,0.27588-0.48126,0.4187  c-0.27435-0.52466-0.5676-1.04285-0.87711-1.54431c3.61766-2.70813,6.87091-5.59119,9.9716-8.92957  c0.6537-0.70374,1.38583-1.49658,1.69632-2.5354c0.54427-1.82104,0.01756-3.6875-0.54015-5.48035  c-2.35397,2.38745-4.86305,4.71375-7.47952,6.77209c-1.31889,1.03784-2.49577,1.80493-4.11421,2.17603  c3.85483-3.25061,7.17395-6.83362,10.2572-10.82739c0.29514-0.38232,0.61949-0.87402,0.65508-1.37317  c0.03561-0.49915-0.17328-0.94226-0.38188-1.35754c-1.1862-2.36194-2.39124-4.68164-3.5658-7.03992  c-1.31747,2.03052-2.70435,4.00134-4.17131,5.92505c0.77077-1.51379,1.41066-3.05164,1.86688-4.68884  c0.11113-0.3988,0.19931-0.81641,0.11894-1.21887c-0.08047-0.40234-0.29636-0.72876-0.52982-1.04761  c-2.46895-3.36938-4.84143-6.71057-7.8833-9.61731c-3.0417-2.90698-6.45561-5.10449-10.46309-6.42334  c-1.49266-0.49121-3.00383-0.71069-4.54939-0.91943c-3.84598-0.51904-7.66209-0.81946-11.43933,0.18152  c-2.67307,0.70837-4.9796,2.1239-7.29126,3.52197c-3.8761,2.34412-7.54826,4.90112-11.26308,7.44568  c8.56061,3.98242,18.37471,1.7124,26.75027,6.09888c2.20416,1.1543,3.78867,3.02234,5.53142,4.76355  c1.74286,1.74133,3.36246,3.65076,4.85489,5.65112c1.5974,2.14062,2.83301,4.52991,3.9702,6.95056  c-0.22205,0.18042-0.43999,0.35266-0.6602,0.52368c-2.76302-3.10889-5.54424-6.20544-8.45282-9.17822  c-1.59152-1.62671-3.15404-3.26721-5.05861-4.52649c-2.52361-1.66846-5.32413-2.69543-8.20624-3.53442  c-10.33391-3.00806-20.85643-5.01965-31.58835-5.89526c-1.83237-0.14954-3.72664-0.23792-5.44633,0.64771  c-2.54846,1.31226-3.80528,3.88342-4.89763,6.43384c-5.83334,13.61902-9.86198,27.88574-12.9761,42.23645  c4.34604,10.047,4.67039,17.41833,12.72849,27.16638c4.55896,5.51501,16.19757,17.17993,21.81036,22.90698  c5.61279,5.72717,9.58791,9.03601,16.16573,11.14636c9.72231,3.11926,18.85359,0.17261,28.25209-2.19788  c0.83931-0.21179,1.64726-0.55298,2.19724-1.22546c0.4603-0.56287,0.53091-1.3136,0.60571-2.01648  c1.9743-18.55151,3.97566-36.99365,5.3961-55.59583c0.5206,3.30042,1.08072,6.61072,1.30716,9.94287  c0.27911,4.10803,0.17892,8.17151,0.01772,12.28699c-0.21814,5.56702-0.25302,11.1759-0.34193,16.75281  c1.16031-2.4176,2.23026-4.81873,3.83569-6.99121c1.36586-1.84814,3.08611-3.30078,4.49895-5.15881  c3.41641-4.4928,5.2075-9.43408,6.56928-14.89038c-0.6612,3.92822-1.0683,7.85632-1.16195,11.84314  c4.72044,1.84412,8.39539,4.45715,11.56326,8.42188c0.16973-8.67712,6.07748-15.0282,8.15421-23.23413  c0.02701,6.90466,0.66949,13.6156,1.86216,20.41357c0.63685-6.54285,2.70986-11.67651,6.47404-17.05286  c0.50585-0.72253,1.10666-1.25781,2.00728-1.35645c0.31648,5.86279,0.32262,11.23865-1.03665,16.98401  c-1.01855,4.30566-2.30804,8.29736-1.89828,12.77673c1.25833-3.49939,3.14674-6.19165,5.96502-8.60876  c-1.75455,5.67651-3.69823,11.09509-4.50511,17.04602c-0.80688,5.95105-0.20707,11.56482,1.973,17.18555  c-0.38509-7.77417,1.47037-14.65063,4.90973-21.60437c1.34964-2.72876,2.49476-5.38257,5.00362-7.3595  c7.43007-5.85486,17.62964-5.78162,25.83272-10.34082c-2.13231,4.17261-6.53047,6.46326-8.00274,10.9978  c-0.30551,0.94104-0.08205,1.88599-0.49614,2.79077c-0.30624,0.66931-0.8033,1.20422-1.30396,1.74194  c-1.91615,2.05798-3.85346,4.10205-5.78421,6.14783c5.76365-2.20496,11.1479-3.89502,17.29196-2.32727  c0.34272,2.11951,0.91357,4.20142,1.37712,6.30029c0.14376,0.65125,0.24803,1.33765-0.21068,1.88806  c-0.33341,0.3999-0.84728,0.53931-1.35358,0.65881c-6.34061,1.49634-12.35529,2.599-16.65962,7.81555  c1.89874-1.89404,6.81542-1.96069,8.96571-2.12927c3.41438-0.26782,6.51216-0.71436,9.20101,0.59253  c5.22991,2.54175,8.11478,7.71729,8.17181,13.09399c0.02778,2.62366-0.88119,4.13916-0.9393,6.58667  c-4.77681-1.08813-9.48059-2.18091-14.22788-3.27966c3.67273,2.28198,6.80455,5.05481,9.54813,8.39185  c-5.78846-3.40295-11.26808-6.2124-18.13558-5.88013c6.79795,4.89893,12.79395,9.7749,15.4493,17.97791  c-2.9764-0.47131-5.76286-0.3866-8.76741-0.10583c-8.82643,0.82507-17.69032,1.69495-26.52416,2.58948  c2.90186,2.92932,4.92662,6.07471,6.50636,9.89307c0.41511,1.00354,0.53374,1.92053,1.42754,2.79297  c0.73193,0.71448,0.87514,0.79529,2.22311,1.4137c6.68633,3.06738,13.96122,6.50684,21.24149,8.94141  c-4.98808,0.99756-7.53953,1.55249-13.1832,1.13611c-7.74854-0.57141-17.73607-1.6781-25.84785-3.18091  c1.217-2.79138,0.68252-5.77246,1.20032-8.71948c-1.21034,3.04968-2.56281,6.04871-5.91138,6.98645  c-1.08852,0.30493-2.07967,0.0271-3.11649-0.12415c-9.2576-1.34985-18.48508-2.16577-27.84686-2.26831  c-1.47511-0.01611-2.92801,0.07581-4.28102,0.74902c10.0011,0.73157,19.78044,2.60266,29.51038,4.98669  c1.81982,0.44592,3.57607,0.91589,5.49527,0.85547c1.57162-0.04956,2.89497-0.61719,4.2318-1.56177  c10.95798,4.42224,24.50787,6.52271,35.8237,7.32849c7.06734,0.50317,11.81351,0.2627,17.17363-3.07556  C-33.87709,1529.18774-31.74012,1521.59436-30.8464,1513.94019z M-204.92133,1362.43835  c0.37616-0.75659,0.89639-1.57947,1.61218-2.07751c0.56955-0.39661,1.28175-0.56421,1.94032-0.6897  c1.96466-0.37427-0.08363-0.16113,1.89915-0.20605c0.79327-0.01794,1.59738,0.09241,1.96306,0.84448  c0.2186,0.44946,0.05011,0.98792-0.06786,1.43506c-2.59851,9.85034-5.31499,20.00903-7.5952,29.80933  c-1.1283,4.84985-1.84164,12.75037-1.83034,12.76526c-2.10638,0.31909-4.56383,1.24463-7.12282,0.08179  c-1.04578-0.47522-1.5479-1.13098-1.85551-2.14709c-0.22943-0.75732-0.01376-1.40552,0.16292-2.19763  c1.25232-5.61548,2.43573-10.7041,3.79924-16.47192C-210.34016,1376.49487-208.24399,1369.12341-204.92133,1362.43835z   M-209.39201,1428.43286c-2.34389-3.30847-8.98738-18.7998-10.0237-24.79077c0.92578,1.35583,2.54886,3.81775,3.90706,5.49487  c-0.05659,0.03418,18.97673,0.4801,30.16365-2.61523c1.19981-0.33203,2.50247-0.69421,3.39565-1.65894  c0.69264-0.74792,1.00816-1.75623,1.30751-2.71814c2.61563-8.40662,5.20517-16.81396,7.78749-25.22974  c-0.71941,6.67358-1.89668,13.1886-3.483,19.71814c-0.54121,2.22778-1.18085,4.46936-1.23581,6.78882  c-0.03778,1.5968,0.16467,3.14539,0.48929,4.72302c1.20235,5.84253,2.75697,11.53333,5.04846,17.06799  c0.90157,2.17737,1.76047,4.45972,3.5522,6.12878c4.87865,4.54456,11.84836,5.22241,17.48633,8.60144  c-14.03697-4.07788-28.83072-3.80737-42.00311,2.94995c0.49431,1.91724,0.84746,3.56665,1.42693,5.65698  C-196.54773,1439.34607-202.22499,1438.54919-209.39201,1428.43286z M-168.28496,1464.99597  c-4.48289-0.92432-7.99281-3.23865-11.41795-6.32849c-3.42509-3.08997-6.23753-7.18787-9.09529-10.8512  c1.68726-1.33118,0.18546-0.60376,2.20245-1.30566c0.67052-0.2334,1.37927-0.37659,2.03949-0.16016  c0.66013,0.21631,1.04803,0.71472,1.48253,1.19592c3.63799,4.02893,7.45464,7.78601,11.68706,11.18481  c1.36491,1.09595,2.75435,2.10852,4.32399,2.8822c1.70439,0.84021,3.53998,1.27991,5.36761,1.75745  c2.26996,0.5929,6.84401,0.16113,10.09319-0.02869C-157.17625,1464.62415-162.53497,1466.18152-168.28496,1464.99597z   M-142.10684,1450.70532c-1.23717-1.60999-2.84688-2.93152-4.06593-4.53662c-0.34172-0.45007-0.57138-0.78198-0.71475-1.34082  c-0.14326-0.55872-0.03951-1.19568,0.08174-1.79065c2.7245-13.36475,5.9807-26.68774,9.99063-39.7334  C-138.3636,1419.14795-140.04279,1434.91809-142.10684,1450.70532z M-190.84262,1411.09875  C-191.42172,1411.3689-189.72565,1409.1261-190.84262,1411.09875L-190.84262,1411.09875z M-181.83072,1408.81506  c-0.00085,0.00122-0.00162,0.0022-0.00247,0.00354C-181.83946,1408.82764-180.33372,1406.02087-181.83072,1408.81506z   M-186.16379,1409.8103c-4.45882,8.46533-8.98833,16.73303-13.39906,25.17932c-0.88283-0.91541-1.88545-1.53345-2.64745-2.67017  c3.00021-5.47327,8.70569-16.71619,11.08167-20.72803c0.11127-0.18787,0.20576-0.35095,0.28601-0.49268  c0.05353-0.02502,0.12431-0.06897,0.22079-0.14221C-189.40652,1410.03369-187.52362,1410.81396-186.16379,1409.8103z" style="fill: #03082f"></path>
</svg>