<!-- Generator: Adobe Illustrator 27.5.0, SVG Export Plug-In . SVG Version: 6.00 Build 0)  -->
<svg version="1.1" id="Layer_1" xmlns="http://www.w3.org/2000/svg" xmlns:xlink="http://www.w3.org/1999/xlink" x="0px" y="0px"
	 viewBox="0 0 300 189.1" style="enable-background:new 0 0 300 189.1;" xml:space="preserve">
<path id="path-01" d="M173.8,47.3H13.2C5.9,47.3,0,53.2,0,60.5v86.4c0,7.3,5.9,13.2,13.2,13.2h61.5v15.8H54.5
	c-6.2,0-11.2,5-11.2,11.2v2.1h100.3V187c0-6.2-5-11.2-11.2-11.2h-19.1V160h60.4c7.3,0,13.2-5.9,13.2-13.2V60.5
	C187,53.2,181.1,47.3,173.8,47.3L173.8,47.3z M171.4,145.5H15.7V62.2h155.7L171.4,145.5L171.4,145.5z M232.8,184.9V0H214
	c-10.2,0-18.5,8.3-18.5,18.5v152c0,10.2,8.3,18.5,18.5,18.5h18.8L232.8,184.9L232.8,184.9z M216,73.4c-2.6,0-4.8-2.1-4.8-4.8
	s2.1-4.8,4.8-4.8s4.8,2.1,4.8,4.8S218.7,73.4,216,73.4z M216,51.8c-2.6,0-4.8-2.1-4.8-4.8s2.1-4.8,4.8-4.8s4.8,2.1,4.8,4.8
	S218.7,51.8,216,51.8z M216,29c-4,0-7.3-3.3-7.3-7.3s3.3-7.3,7.3-7.3s7.3,3.3,7.3,7.3S220,29,216,29z M300,18.5v152
	c0,10.2-8.3,18.5-18.5,18.5H237V158h43.2c-0.9-2.9-3.6-5-6.7-5H237v-12.2h43.2c-0.9-2.9-3.6-5-6.7-5H237v-12.2h43.2
	c-0.9-2.9-3.6-5-6.7-5H237V0h44.5C291.7,0,300,8.3,300,18.5L300,18.5z"/>
</svg>
