<svg height="5.5rem" width="5.5rem" xmlns="http://www.w3.org/2000/svg" xmlns:xlink="http://www.w3.org/1999/xlink" version="1.1" id="Layer_1" x="0px" y="0px" viewBox="-263.51996 272 217.03998 250" style="enable-background:new -263.51996 272 217.03998 250;" xml:space="preserve" class="id-db1a5f68-2441-4eff-a1b4-c08fff7f0492">
<style type="text/css" style="fill: #03082f">
	.id-db1a5f68-2441-4eff-a1b4-c08fff7f0492 .st0{fill:#C6CACE;}
	.id-db1a5f68-2441-4eff-a1b4-c08fff7f0492 .st1{fill:#737A81;}
	.id-db1a5f68-2441-4eff-a1b4-c08fff7f0492 .st2{fill:#DE2F21;}
	.id-db1a5f68-2441-4eff-a1b4-c08fff7f0492 .st3{fill:#A72319;}
	.id-db1a5f68-2441-4eff-a1b4-c08fff7f0492 .st4{fill:#383838;}
	.id-db1a5f68-2441-4eff-a1b4-c08fff7f0492 .st5{fill:#1A1A16;}
	.id-db1a5f68-2441-4eff-a1b4-c08fff7f0492 .st6{fill:#88919A;}
	.id-db1a5f68-2441-4eff-a1b4-c08fff7f0492 .st7{fill:#ADB4BA;}
	.id-db1a5f68-2441-4eff-a1b4-c08fff7f0492 .st8{fill:#454753;}
	.id-db1a5f68-2441-4eff-a1b4-c08fff7f0492 .st9{fill:#FF7526;}
	.id-db1a5f68-2441-4eff-a1b4-c08fff7f0492 .st10{fill:#E3A91B;}
	.id-db1a5f68-2441-4eff-a1b4-c08fff7f0492 .st11{fill:#BDBDBD;}
	.id-db1a5f68-2441-4eff-a1b4-c08fff7f0492 .st12{fill:#FFCB00;}
	.id-db1a5f68-2441-4eff-a1b4-c08fff7f0492 .st13{fill:#888888;}
	.id-db1a5f68-2441-4eff-a1b4-c08fff7f0492 .st14{fill:#1A1A1A;}
	.id-db1a5f68-2441-4eff-a1b4-c08fff7f0492 .st15{fill:#8FD2E5;}
	.id-db1a5f68-2441-4eff-a1b4-c08fff7f0492 .st16{fill:#FF6E63;}
	.id-db1a5f68-2441-4eff-a1b4-c08fff7f0492 .st17{fill:#474747;}
	.id-db1a5f68-2441-4eff-a1b4-c08fff7f0492 .st18{fill:#626262;}
	.id-db1a5f68-2441-4eff-a1b4-c08fff7f0492 .st19{fill:#9E9E9E;}
	.id-db1a5f68-2441-4eff-a1b4-c08fff7f0492 .st20{fill:#525252;}
	.id-db1a5f68-2441-4eff-a1b4-c08fff7f0492 .st21{fill:none;stroke:#000000;stroke-miterlimit:10;}
	.id-db1a5f68-2441-4eff-a1b4-c08fff7f0492 .st22{fill:#464646;}
	.id-db1a5f68-2441-4eff-a1b4-c08fff7f0492 .st23{fill:#929292;}
	.id-db1a5f68-2441-4eff-a1b4-c08fff7f0492 .st24{fill:none;stroke:#000000;stroke-width:3;stroke-miterlimit:10;}
	.id-db1a5f68-2441-4eff-a1b4-c08fff7f0492 .st25{fill:none;stroke:#000000;stroke-width:2;stroke-linecap:round;stroke-miterlimit:10;}
	.id-db1a5f68-2441-4eff-a1b4-c08fff7f0492 .st26{fill:none;stroke:#000000;stroke-linejoin:round;stroke-miterlimit:10;}
	.id-db1a5f68-2441-4eff-a1b4-c08fff7f0492 .st27{fill:none;stroke:#000000;stroke-width:3;stroke-linejoin:round;stroke-miterlimit:10;}
	.id-db1a5f68-2441-4eff-a1b4-c08fff7f0492 .st28{fill:none;stroke:#000000;stroke-width:5;stroke-linejoin:round;stroke-miterlimit:10;}
	.id-db1a5f68-2441-4eff-a1b4-c08fff7f0492 .st29{fill:none;stroke:#000000;stroke-width:1.7;stroke-linecap:round;stroke-miterlimit:10;}
	.id-db1a5f68-2441-4eff-a1b4-c08fff7f0492 .st30{fill:none;stroke:#000000;stroke-width:2;stroke-miterlimit:10;}
	.id-db1a5f68-2441-4eff-a1b4-c08fff7f0492 .st31{fill:none;stroke:#000000;stroke-width:2;stroke-linejoin:round;stroke-miterlimit:10;}
	.id-db1a5f68-2441-4eff-a1b4-c08fff7f0492 .st32{fill:none;stroke:#000000;stroke-width:6;stroke-miterlimit:10;}
	.id-db1a5f68-2441-4eff-a1b4-c08fff7f0492 .st33{fill:#606060;}
	.id-db1a5f68-2441-4eff-a1b4-c08fff7f0492 .st34{fill:none;stroke:#000000;stroke-width:5;stroke-miterlimit:10;}
	.id-db1a5f68-2441-4eff-a1b4-c08fff7f0492 .st35{fill:#D3E8EB;}
	.id-db1a5f68-2441-4eff-a1b4-c08fff7f0492 .st36{fill:#457985;}
	.id-db1a5f68-2441-4eff-a1b4-c08fff7f0492 .st37{fill:#5CA1B0;}
	.id-db1a5f68-2441-4eff-a1b4-c08fff7f0492 .st38{fill:#7FBFC9;}
</style>
<path id="path-01" d="M-214.28998,348.94v48.34003l45.19-48.34003H-214.28998z M-154.84003,348.94l-53.38995,57.10999H-200.5  l53.39001-57.10999H-154.84003z M-142.35999,348.94l-53.38,57.10999h29.95996l53.38-57.10999H-142.35999z M-100.51001,348.94  l-53.39001,57.10999H-135.88l40.16998-42.95996V348.94H-100.51001z M-128.75,406.04999h33.03998v-35.33002L-128.75,406.04999z   M-95.71002,406.04999v-35.33002L-128.75,406.04999H-95.71002z M-100.51001,348.94l-53.39001,57.10999H-135.88l40.16998-42.95996  V348.94H-100.51001z M-142.35999,348.94l-53.38,57.10999h29.95996l53.38-57.10999H-142.35999z M-154.84003,348.94  l-53.38995,57.10999H-200.5l53.39001-57.10999H-154.84003z M-214.28998,348.94v48.34003l45.19-48.34003H-214.28998z   M-56.88,351.85999l-2.40997-0.84998c0,10.37-0.67999,26.08997-4.26001,36.47998c0.33002-8.52997,0.28998-17.28998-0.14001-26.25  C-67.67999,277.90997-136.38,272-155,272s-87.32001,5.90997-91.31,89.23999c-0.42999,8.96002-0.46997,17.72998-0.14001,26.26001  c-3.57996-10.39001-4.25995-26.12-4.25995-36.48999l-2.41003,0.84998c-6.22998,2.21002-10.39996,8.10999-10.39996,14.71002v35.21997  c0,6.62,4.16998,12.5,10.39996,14.73004l9.91003,3.5C-233.22998,480.20996-202.01001,522-155,522  s78.22998-41.79004,88.21997-101.97998l9.90002-3.5c6.22998-2.23004,10.40002-8.11005,10.40002-14.73004v-35.21997  C-46.47998,359.96997-50.65002,354.07001-56.88,351.85999z M-154.53998,280.87c14.64996,0,55.59998,3.65002,73.98999,42.25  c-6.07001-1.02997-12.39001-1.52002-16.77002-1.76001c-19.19-35.03998-57.89996-38.44-72.03998-38.44  c-1.73004,0-3.79004,0.04999-6.15002,0.20001C-166.87,281.26001-159.31,280.87-154.53998,280.87z M-230.76001,341.95001  C-232.19,358.81-233,375.73999-233.14996,392.71997c-1.19-16.93994-1.29004-33.97998-0.30005-50.95996  c-0.37994-6.91998,4.31-14.10999,11.35004-15.66998c44.44995-4.33002,89.42999-3.58002,133.81995,1.34998  c-44.32996-1.47003-88.87994-1.76001-133.07996,1.71997C-227.27002,330.47998-230.81,335.96997-230.76001,341.95001z   M-222.96997,345.72998c0-3.01996,2.44995-5.46997,5.46997-5.46997h125c3.02002,0,5.46002,2.45001,5.46002,5.46997v63.53003  c0,3.02002-2.44,5.46997-5.46002,5.46997h-125c-3.02002,0-5.46997-2.44995-5.46997-5.46997V345.72998z M-106.62,491.98999  c-13.37,14.02002-29.48999,21.13-47.91998,21.13c-6.37,0-12.45001-0.85999-18.26001-2.54999  c1.79999,0.15997,3.62,0.22998,5.46997,0.22998c18.42004,0,34.54999-7.10999,47.92004-21.13  c12.50995-13.10999,21.95996-31.56,27.94-53.73999c3.28998-0.16998,8.22998-0.52997,13.72998-1.27997  C-83.65002,458.45001-93.44,478.15997-106.62,491.98999z M-76.70001,415.34003c-0.26001,7.06995-6.20001,13.26996-13.26001,13.90997  c-43.88,3.63-88.17999,3.37-131.94-1.71002c43.89001,1.59003,87.81,1.5,131.63-1.42999  c5.67004-0.42999,10.45001-5.26001,10.88-10.96997c1.48004-16.64001,2.37-33.35004,2.62-50.12  C-75.67999,381.75-75.65997,398.58002-76.70001,415.34003z M-95.71002,406.04999v-35.33002L-128.75,406.04999H-95.71002z   M-135.88,406.04999l40.16998-42.95996V348.94h-4.79999l-53.39001,57.10999H-135.88z M-165.78003,406.04999l53.38-57.10999  h-29.95996l-53.38,57.10999H-165.78003z M-200.5,406.04999l53.39001-57.10999h-7.73004l-53.38995,57.10999H-200.5z   M-214.28998,348.94v48.34003l45.19-48.34003H-214.28998z M-214.28998,348.94v48.34003l45.19-48.34003H-214.28998z   M-154.84003,348.94l-53.38995,57.10999H-200.5l53.39001-57.10999H-154.84003z M-142.35999,348.94l-53.38,57.10999h29.95996  l53.38-57.10999H-142.35999z M-100.51001,348.94l-53.39001,57.10999H-135.88l40.16998-42.95996V348.94H-100.51001z   M-128.75,406.04999h33.03998v-35.33002L-128.75,406.04999z M-154.84003,348.94l-53.38995,57.10999H-200.5l53.39001-57.10999  H-154.84003z M-128.75,406.04999h33.03998v-35.33002L-128.75,406.04999z M-214.28998,348.94v48.34003l45.19-48.34003H-214.28998z   M-100.51001,348.94l-53.39001,57.10999H-135.88l40.16998-42.95996V348.94H-100.51001z M-142.35999,348.94l-53.38,57.10999h29.95996  l53.38-57.10999H-142.35999z" style="fill: #03082f"></path>
</svg>
