<svg height="5.5rem" width="5.5rem" xmlns="http://www.w3.org/2000/svg" xmlns:xlink="http://www.w3.org/1999/xlink" version="1.1" id="Layer_1" x="0px" y="0px" viewBox="765.28778 272 246.91383 250" style="enable-background:new 765.28778 272 246.91383 250;" xml:space="preserve" class="id-9117b0ca-2437-4a14-887d-93eefc82ba61">
<style type="text/css" style="fill: #03082f">
	.id-9117b0ca-2437-4a14-887d-93eefc82ba61 .st0{fill:#C6CACE;}
	.id-9117b0ca-2437-4a14-887d-93eefc82ba61 .st1{fill:#737A81;}
	.id-9117b0ca-2437-4a14-887d-93eefc82ba61 .st2{fill:#DE2F21;}
	.id-9117b0ca-2437-4a14-887d-93eefc82ba61 .st3{fill:#A72319;}
	.id-9117b0ca-2437-4a14-887d-93eefc82ba61 .st4{fill:#383838;}
	.id-9117b0ca-2437-4a14-887d-93eefc82ba61 .st5{fill:#1A1A16;}
	.id-9117b0ca-2437-4a14-887d-93eefc82ba61 .st6{fill:#88919A;}
	.id-9117b0ca-2437-4a14-887d-93eefc82ba61 .st7{fill:#ADB4BA;}
	.id-9117b0ca-2437-4a14-887d-93eefc82ba61 .st8{fill:#454753;}
	.id-9117b0ca-2437-4a14-887d-93eefc82ba61 .st9{fill:#FF7526;}
	.id-9117b0ca-2437-4a14-887d-93eefc82ba61 .st10{fill:#E3A91B;}
	.id-9117b0ca-2437-4a14-887d-93eefc82ba61 .st11{fill:#BDBDBD;}
	.id-9117b0ca-2437-4a14-887d-93eefc82ba61 .st12{fill:#FFCB00;}
	.id-9117b0ca-2437-4a14-887d-93eefc82ba61 .st13{fill:#888888;}
	.id-9117b0ca-2437-4a14-887d-93eefc82ba61 .st14{fill:#1A1A1A;}
	.id-9117b0ca-2437-4a14-887d-93eefc82ba61 .st15{fill:#8FD2E5;}
	.id-9117b0ca-2437-4a14-887d-93eefc82ba61 .st16{fill:#FF6E63;}
	.id-9117b0ca-2437-4a14-887d-93eefc82ba61 .st17{fill:#474747;}
	.id-9117b0ca-2437-4a14-887d-93eefc82ba61 .st18{fill:#626262;}
	.id-9117b0ca-2437-4a14-887d-93eefc82ba61 .st19{fill:#9E9E9E;}
	.id-9117b0ca-2437-4a14-887d-93eefc82ba61 .st20{fill:#525252;}
	.id-9117b0ca-2437-4a14-887d-93eefc82ba61 .st21{fill:none;stroke:#000000;stroke-miterlimit:10;}
	.id-9117b0ca-2437-4a14-887d-93eefc82ba61 .st22{fill:#464646;}
	.id-9117b0ca-2437-4a14-887d-93eefc82ba61 .st23{fill:#929292;}
	.id-9117b0ca-2437-4a14-887d-93eefc82ba61 .st24{fill:none;stroke:#000000;stroke-width:3;stroke-miterlimit:10;}
	.id-9117b0ca-2437-4a14-887d-93eefc82ba61 .st25{fill:none;stroke:#000000;stroke-width:2;stroke-linecap:round;stroke-miterlimit:10;}
	.id-9117b0ca-2437-4a14-887d-93eefc82ba61 .st26{fill:none;stroke:#000000;stroke-linejoin:round;stroke-miterlimit:10;}
	.id-9117b0ca-2437-4a14-887d-93eefc82ba61 .st27{fill:none;stroke:#000000;stroke-width:3;stroke-linejoin:round;stroke-miterlimit:10;}
	.id-9117b0ca-2437-4a14-887d-93eefc82ba61 .st28{fill:none;stroke:#000000;stroke-width:5;stroke-linejoin:round;stroke-miterlimit:10;}
	.id-9117b0ca-2437-4a14-887d-93eefc82ba61 .st29{fill:none;stroke:#000000;stroke-width:1.7;stroke-linecap:round;stroke-miterlimit:10;}
	.id-9117b0ca-2437-4a14-887d-93eefc82ba61 .st30{fill:none;stroke:#000000;stroke-width:2;stroke-miterlimit:10;}
	.id-9117b0ca-2437-4a14-887d-93eefc82ba61 .st31{fill:none;stroke:#000000;stroke-width:2;stroke-linejoin:round;stroke-miterlimit:10;}
	.id-9117b0ca-2437-4a14-887d-93eefc82ba61 .st32{fill:none;stroke:#000000;stroke-width:6;stroke-miterlimit:10;}
	.id-9117b0ca-2437-4a14-887d-93eefc82ba61 .st33{fill:#606060;}
	.id-9117b0ca-2437-4a14-887d-93eefc82ba61 .st34{fill:none;stroke:#000000;stroke-width:5;stroke-miterlimit:10;}
	.id-9117b0ca-2437-4a14-887d-93eefc82ba61 .st35{fill:#D3E8EB;}
	.id-9117b0ca-2437-4a14-887d-93eefc82ba61 .st36{fill:#457985;}
	.id-9117b0ca-2437-4a14-887d-93eefc82ba61 .st37{fill:#5CA1B0;}
	.id-9117b0ca-2437-4a14-887d-93eefc82ba61 .st38{fill:#7FBFC9;}
</style>
<path id="path-01_00000155866437077795723960000007779879387821762748_" d="M812.87207,297.06253  c-0.04669-0.06583-0.09058-0.1756-0.03845-0.31006l8.69263-22.63147c0.50482-1.28961,1.7204-2.121,3.09778-2.121h45.83093  c1.35822,0,2.59296,0.84787,3.07593,2.11279l8.70905,22.63968c0.05212,0.13721,0.01099,0.24423-0.03571,0.31006  c-0.04663,0.06586-0.13171,0.14545-0.2771,0.14545h-6.36029c-0.13995,0-0.26343-0.08234-0.31281-0.21402l-7.07373-18.38947  h-41.30353l-7.07098,18.39221c-0.04938,0.12619-0.1756,0.21127-0.31281,0.21127h-6.34381  C813.00098,297.20798,812.91595,297.12839,812.87207,297.06253z M911.95605,316.20105c3.72479,0,7.21228,1.00632,10.23193,2.73959  l-11.98254-20.98907c-2.17584-4.38745-6.47827-7.06824-11.26355-7.06824h-15.94843l1.86957,4.85941  c0.37317,0.9686,0.2442,2.05518-0.34296,2.91125c-0.58722,0.85333-1.55579,1.36371-2.59296,1.36371h-6.36029  c-1.31433,0-2.46674-0.79025-2.93597-2.01675l-2.73871-7.11761h-44.72479l-2.7384,7.12036  c-0.46375,1.20456-1.64355,2.01401-2.93597,2.01401h-6.34381c-1.03717,0-2.0058-0.51038-2.59296-1.36096  c-0.58722-0.85336-0.71613-1.94266-0.3457-2.91125l1.86719-4.86215h-16.02014c-4.78253,0-9.08496,2.68079-11.22241,6.99414  L772.7796,319.0029c3.04327-1.77048,6.56744-2.80185,10.33514-2.80185H911.95605z M900.25616,356.4043  c2.58478,0,4.68658-2.10181,4.68658-4.68378c0-2.58475-2.10181-4.68655-4.68658-4.68655c-2.58197,0-4.68378,2.10181-4.68378,4.68655  C895.57239,354.30249,897.67419,356.4043,900.25616,356.4043z M867.72754,356.4043c2.58203,0,4.68384-2.10181,4.68384-4.68378  c0-2.58475-2.10181-4.68655-4.68384-4.68655c-2.58472,0-4.68652,2.10181-4.68652,4.68655  C863.04102,354.30249,865.14282,356.4043,867.72754,356.4043z M771.89502,336.83774c0-6.18744,5.03229-11.22244,11.21698-11.22244  h128.84406c6.18744,0,11.21973,5.035,11.21973,11.22244v138.25555c0,2.00443-0.57141,3.86081-1.49579,5.49103  c4.85632-3.18634,8.07556-8.67047,8.07556-14.89975V336.83499c0-3.36124-0.97406-6.67035-2.81244-9.56516l-0.26959-0.47177  c-3.21307-4.69666-8.60962-7.78726-14.71747-7.78726H783.11475c-6.52051,0-12.21918,3.52997-15.32727,8.76889  c-0.23157,0.39359-0.45001,0.79211-0.64966,1.19754c-0.12622,0.25552-0.2572,0.50812-0.37177,0.77051  c-0.26617,0.61172-0.49872,1.23407-0.69421,1.86584c-0.09363,0.3049-0.1626,0.61993-0.24011,0.9317  c-0.09467,0.37744-0.17834,0.75681-0.24792,1.13904c-0.06757,0.37524-0.13068,0.75201-0.17389,1.13495  c-0.03638,0.31931-0.04944,0.64087-0.0686,0.96225c-0.02063,0.35052-0.05353,0.69797-0.05353,1.05347v128.84134  c0,6.24576,3.23639,11.74292,8.11365,14.9277c-0.93121-1.63467-1.50641-3.49826-1.50641-5.51074V336.83774z M1005.51807,304.0687  l6.65387-21.1196c0.10425-0.33749-0.0741-0.68323-0.41156-0.79025l-1.789-0.55975c-0.45001,0.64481-0.97955,1.01523-1.40765,1.31158  c-0.50482,0.35123-0.75726,0.52957-0.94934,1.13321c-0.18933,0.60092-0.08234,0.89175,0.12897,1.47073  c0.27161,0.74905,0.64478,1.77527,0.16461,3.30087c-0.47467,1.51462-1.3692,2.13748-2.01947,2.59021  c-0.50488,0.35123-0.75732,0.52957-0.9494,1.13321c-0.18933,0.60367-0.08234,0.89178,0.12622,1.47073  c0.27441,0.74908,0.64758,1.77255,0.16736,3.29813c-0.47742,1.51462-1.36646,2.13748-2.01672,2.59021  c-0.51038,0.35672-0.76556,0.53781-0.96039,1.15244c-0.18933,0.60641-0.08228,0.8945,0.12897,1.47348  c0.22778,0.63107,0.53235,1.45972,0.33203,2.62314l2.92499,5.75116c0.16736,0.32651,0.20026,0.70792,0.08777,1.05911  l-9.6145,30.51736l2.15942,0.68048l10.21271-32.41061l-2.87836-5.61124  C1005.43848,304.80405,1005.40552,304.42264,1005.51807,304.0687z M1000.01453,303.57581  c-0.27167-0.74634-0.64484-1.76706-0.16736-3.28442c0.48016-1.52557,1.37463-2.15118,2.02771-2.60941  c0.50488-0.35123,0.75732-0.52957,0.94934-1.13321c0.19208-0.61191,0.08508-0.90549-0.12616-1.48993  c-0.27441-0.74634-0.64758-1.76706-0.16742-3.27893c0.47748-1.51736,1.3692-2.14023,2.02228-2.59296  c0.50208-0.35123,0.75726-0.52682,0.94659-1.13049c0.19208-0.61462,0.08508-0.9082-0.12622-1.49268  c-0.27161-0.74631-0.64478-1.76703-0.16736-3.2789c0.46643-1.48444,1.33075-2.11279,1.97833-2.56281l-3.67682-1.16064  c-0.32098-0.09604-0.68323,0.08231-0.79022,0.41434l-6.65387,21.11957c-0.10974,0.35123-0.35669,0.64758-0.68323,0.82043  l-5.57556,2.94418l-2.8111,8.96011l-0.97821-0.30869c-0.08502-0.02744-0.17285-0.03842-0.26062-0.03842  c-0.36774,0-0.71069,0.23599-0.82867,0.60367l-13.27759,42.13766c-0.1427,0.45547,0.11249,0.94388,0.57068,1.08932l1.57159,0.4949  l-0.56183,0.99414c-14.29834,28.93005-8.0553,52.51279-1.45422,77.45255c5.85675,23.57724-0.22089,45.23669-16.67456,59.42303  c-8.23364,7.10098-18.33423,11.56046-28.58563,13.11639c-1.67102,1.52338-3.4093,2.95071-5.22504,4.26724  c12.88556-0.65131,25.96149-5.64157,36.27124-14.53156c17.56769-15.14636,24.08093-38.1774,17.86194-63.21097  c-6.7019-25.31857-12.49078-47.18399,1.18262-74.84705l0.78473-1.53003l1.60657,0.50607c0,0,0,0,0.00275,0  c0.21674,0.07132,0.44995,0.05212,0.65851-0.05765c0.20581-0.10699,0.35669-0.28809,0.42804-0.51035l13.2749-42.13492  c0.06854-0.22226,0.04938-0.45551-0.05768-0.66129c-0.10699-0.20303-0.28809-0.35397-0.50757-0.42255l-0.95557-0.30167  l2.21497-7.07114c0.1098-0.3512,0.354-0.64481,0.68048-0.81766l5.46515-2.90253  C1000.21069,304.24789,1000.15723,303.96646,1000.01453,303.57581z M883.97131,522c-5.73883,0-11.38025-0.75201-16.68896-2.15686  c-21.43854-5.66901-45.72729-24.8588-43.62207-60.2872c0.06036-1.03906,0.94525-1.82791,1.99133-1.76721  c1.03723,0.0607,1.82953,0.95264,1.76709,1.99155c-0.13171,2.21173-0.13654,4.34473-0.05627,6.42184  c2.79498-0.79367,4.85669-3.33722,4.85669-6.38361c0-3.68298-2.99597-6.67911-6.67932-6.67911  c-3.68262,0-6.67859,2.99612-6.67859,6.67911c0,1.80734,0.72821,3.44391,1.89844,4.64761  c0.01544,1.84406,0.10425,3.64041,0.25623,5.39462h-18.10956c-0.9494,0-1.72046-0.77103-1.72046-1.72043V451.496  c0-0.9494,0.77106-1.72043,1.72046-1.72043h89.25818c0.9494,0,1.7204,0.77103,1.7204,1.72043v16.64432  c0,0.9494-0.771,1.72043-1.7204,1.72043h-19.15155c0.20032,0.94955,0.41125,1.88931,0.64551,2.80972h18.50604  c2.49695,0,4.53015-2.0332,4.53015-4.53015V451.496c0-2.49695-2.0332-4.53015-4.53015-4.53015h-89.25818  c-2.49695,0-4.53015,2.0332-4.53015,4.53015v16.64432c0,2.49695,2.0332,4.53015,4.53015,4.53015h18.3949  c0.49939,3.8392,1.33148,7.44379,2.43176,10.83279h-40.61823c-0.00208,0-0.00342-0.00034-0.00549-0.00034  c-4.63269-0.00137-8.40448-3.7735-8.40448-8.40964V336.83774c0-4.63989,3.77283-8.41272,8.40723-8.41272h128.84406  c4.63715,0,8.40997,3.77283,8.40997,8.41272v138.25555c0,4.62961-3.76117,8.39542-8.388,8.40775  c-0.01477,0-0.02881,0.00223-0.04388,0.00223h-34.42468c4.96503,10.52982,12.75763,18.26324,22.99847,22.48624  c4.58502,1.88983,9.50684,2.95224,14.54425,3.29059c8.0824-5.19794,15.23157-12.7923,20.40582-23.29688  c10.12286-17.33801,7.2171-36.52249,4.14124-56.83212c-3.19391-21.09662-6.49823-42.91232,3.31732-65.81284l0.50696-1.16153  l-2.40778-0.76279c-0.13446-0.04391-0.20306-0.13995-0.23047-0.19482c-0.03296-0.06586-0.06586-0.17014-0.02472-0.29907  l14.37244-45.38095c0.05762-0.17834,0.31281-0.31281,0.4939-0.2579l1.55988,0.49423l8.38666-26.49792  c1.76154-5.56732,6.65112-9.58435,12.45715-10.2374l10.34442-1.16614l0.50763,4.49445l-10.34717,1.16342  c-4.03076,0.45547-7.42767,3.246-8.64868,7.11212l-8.38599,26.49808l1.54004,0.48792  c0.2085,0.06586,0.32654,0.29083,0.26068,0.49664l-14.37244,45.37543c-0.06586,0.21402-0.30182,0.3183-0.49939,0.26068  l-1.43573-0.4548l-0.6167,1.51239c-9.39294,21.91498-6.16956,43.19183-3.05463,63.76813  c3.1795,20.98636,6.1806,40.80688-4.54932,59.17661C926.76404,512.15326,904.74103,521.99829,883.97131,522z M892.7627,351.72052  c0,4.13226,3.36121,7.4935,7.49347,7.4935c4.13232,0,7.49628-3.36124,7.49628-7.4935c0-4.13229-3.36395-7.49628-7.49628-7.49628  C896.1239,344.22424,892.7627,347.58823,892.7627,351.72052z M860.23132,351.72052c0,4.13226,3.36395,7.4935,7.49622,7.4935  c4.13232,0,7.49353-3.36124,7.49353-7.4935c0-4.13229-3.36121-7.49628-7.49353-7.49628  C863.59528,344.22424,860.23132,347.58823,860.23132,351.72052z M852.38385,380.32538c0,1.31982,1.06732,2.38718,2.38715,2.38718  h51.75494c1.31982,0,2.38715-1.06735,2.38715-2.38718c0-1.31979-1.06732-2.38715-2.38715-2.38715H854.771  C853.45117,377.93823,852.38385,379.00558,852.38385,380.32538z M852.38385,390.57925c0,1.31979,1.06732,2.38718,2.38715,2.38718  h51.75494c1.31982,0,2.38715-1.06738,2.38715-2.38718s-1.06732-2.38718-2.38715-2.38718H854.771  C853.45117,388.19208,852.38385,389.25946,852.38385,390.57925z M852.38385,400.83585c0,1.31979,1.06732,2.38718,2.38715,2.38718  h51.75494c1.31982,0,2.38715-1.06738,2.38715-2.38718s-1.06732-2.38718-2.38715-2.38718H854.771  C853.45117,398.44867,852.38385,399.51605,852.38385,400.83585z M852.38385,411.09244c0,1.31982,1.06732,2.38718,2.38715,2.38718  h51.75494c1.31982,0,2.38715-1.06735,2.38715-2.38718c0-1.31979-1.06732-2.38715-2.38715-2.38715H854.771  C853.45117,408.70529,852.38385,409.77264,852.38385,411.09244z M852.38385,421.34906c0,1.31979,1.06732,2.38715,2.38715,2.38715  h51.75494c1.31982,0,2.38715-1.06735,2.38715-2.38715c0-1.31982-1.06732-2.38718-2.38715-2.38718H854.771  C853.45117,418.96188,852.38385,420.02924,852.38385,421.34906z M787.31836,359.41159c0,2.62863,2.1402,4.76886,4.76886,4.76886  h45.19159c2.6286,0,4.76886-2.14023,4.76886-4.76886v-15.38492c0-2.62863-2.14026-4.76883-4.76886-4.76883h-45.19159  c-2.62866,0-4.76886,2.1402-4.76886,4.76883V359.41159z M842.6842,431.60565c0-1.31979-1.06732-2.38718-2.38715-2.38718h-51.75494  c-1.31982,0-2.38715,1.06738-2.38715,2.38718s1.06732,2.38718,2.38715,2.38718h51.75494  C841.61688,433.99283,842.6842,432.92545,842.6842,431.60565z M842.6842,421.34906c0-1.31982-1.06732-2.38718-2.38715-2.38718  h-51.75494c-1.31982,0-2.38715,1.06735-2.38715,2.38718c0,1.31979,1.06732,2.38715,2.38715,2.38715h51.75494  C841.61688,423.73621,842.6842,422.66885,842.6842,421.34906z M842.6842,411.09244c0-1.31979-1.06732-2.38715-2.38715-2.38715  h-51.75494c-1.31982,0-2.38715,1.06735-2.38715,2.38715c0,1.31982,1.06732,2.38718,2.38715,2.38718h51.75494  C841.61688,413.47961,842.6842,412.41226,842.6842,411.09244z M842.6842,400.83585c0-1.31979-1.06732-2.38718-2.38715-2.38718  h-51.75494c-1.31982,0-2.38715,1.06738-2.38715,2.38718s1.06732,2.38718,2.38715,2.38718h51.75494  C841.61688,403.22302,842.6842,402.15564,842.6842,400.83585z M842.6842,390.57925c0-1.31979-1.06732-2.38718-2.38715-2.38718  h-51.75494c-1.31982,0-2.38715,1.06738-2.38715,2.38718s1.06732,2.38718,2.38715,2.38718h51.75494  C841.61688,392.96643,842.6842,391.89905,842.6842,390.57925z M842.6842,380.32538c0-1.31979-1.06732-2.38715-2.38715-2.38715  h-51.75494c-1.31982,0-2.38715,1.06735-2.38715,2.38715c0,1.31982,1.06732,2.38718,2.38715,2.38718h51.75494  C841.61688,382.71255,842.6842,381.6452,842.6842,380.32538z M906.52594,433.99283c1.31982,0,2.38715-1.06738,2.38715-2.38718  s-1.06732-2.38718-2.38715-2.38718H854.771c-1.31982,0-2.38715,1.06738-2.38715,2.38718s1.06732,2.38718,2.38715,2.38718H906.52594z   M909.63782,512.38599c-3.63525-0.59473-7.19067-1.52353-10.56628-2.91556c-18.29755-7.54651-29.41364-25.18069-31.30005-49.65707  c-0.07892-1.03717,0.69489-1.9437,1.73206-2.02274c1.04266-0.07547,1.94336,0.69693,2.02289,1.73224  c0.16876,2.18686,0.43872,4.2952,0.76007,6.362c2.30695-1.05328,3.92236-3.36914,3.92236-6.06635  c0-3.68298-2.99664-6.67911-6.67926-6.67911s-6.67926,2.99612-6.67926,6.67911c0,2.19699,1.08038,4.13312,2.7226,5.35107  c0.21405,1.59503,0.46851,3.15854,0.76208,4.69116h-38.68176c0.0954,0.94937,0.20032,1.89017,0.33856,2.80972h38.92151  c0.87939,3.83096,2.02289,7.44345,3.41168,10.83279H830.7998c6.88031,18.23941,22.84552,28.83951,37.44427,32.70084  C881.23529,519.63922,896.3407,518.91711,909.63782,512.38599z" style="fill: #03082f"></path>
</svg>