<svg xmlns="http://www.w3.org/2000/svg" viewBox="0 0 16 16" class="tw-fill-current tw-w-4 tw-h-4" role="graphics-symbol" aria-labelledby="title" aria-describedby="desc"><title id="hamburger-1-291-title" lang="en">Hamburger 1</title><desc id="hamburger-1-291-desc" lang="en">Hamburger 1 Icon</desc><svg viewBox="0 0 16 16" xmlns="http://www.w3.org/2000/svg"><path d="M13.8 2H2.2C1.53726 2 1 2.53726 1 3.2C1 3.86274 1.53726 4.4 2.2 4.4H13.8C14.4627 4.4 15 3.86274 15 3.2C15 2.53726 14.4627 2 13.8 2Z"></path><path d="M13.8 6.8H2.2C1.53726 6.8 1 7.33726 1 8C1 8.66274 1.53726 9.2 2.2 9.2H13.8C14.4627 9.2 15 8.66274 15 8C15 7.33726 14.4627 6.8 13.8 6.8Z"></path><path d="M2.2 11.6H13.8C14.4627 11.6 15 12.1373 15 12.8C15 13.4627 14.4627 14 13.8 14H2.2C1.53726 14 1 13.4627 1 12.8C1 12.1373 1.53726 11.6 2.2 11.6Z"></path></svg></svg>