<svg id="Handdrawn" xmlns="http://www.w3.org/2000/svg" viewBox="0 0 245.89464 291.92514"><title>magicshape_01_Santipanes_2023June27</title><path d="M11.79356,167.07374c-1.47131-1.53064-2.93652-3.092-4.306-4.751A23.17455,23.17455,0,0,1,4.16478,156.828a29.01846,29.01846,0,0,1-1.879-6.1532,21.37674,21.37674,0,0,1-.27234-6.47333.32047.32047,0,0,1,.3457-.26495.30415.30415,0,0,1,.21924.11242c1.34119,1.73224,2.441,3.44507,3.55566,5.11377,1.07935,1.66187,2.14539,3.30359,3.20752,4.939,1.04981,1.62543,2.02234,3.27093,2.94409,4.97638a39.69761,39.69761,0,0,0,3.07581,4.96619,54.40312,54.40312,0,0,0,3.754,4.52636,54.71155,54.71155,0,0,0,4.20508,4.18671c.47912.43225.95361.875,1.44507,1.29736l1.70776.92414c.85974.49554,1.77392.89685,2.65161,1.34747.89233.42627,1.81152.79571,2.70923,1.19446l2.7439,1.07226c.93457.30207,1.85229.63819,2.79.9112a39.99554,39.99554,0,0,0,5.71582,1.19055c1.91529.28741,3.79322.64471,5.68055,1.06616.94311.219,1.88855.45441,2.84655.65234l1.43848.35065,1.45435.32349,1.49926.38568,2.83631-.22431,6.10473-.39489c2.03479-.12482,4.06971-.35773,6.10462-.55579a34.39692,34.39692,0,0,1,6.10473-.0293,54.37229,54.37229,0,0,1,6.10474.858,33.765,33.765,0,0,1,6.10474,1.77485.3225.3225,0,0,1,.166.40307.302.302,0,0,1-.166.182,33.765,33.765,0,0,1-6.10474,1.77484,54.36746,54.36746,0,0,1-6.10474.85791,34.39124,34.39124,0,0,1-6.10473-.02924c-2.03491-.198-4.06983-.431-6.10462-.55578l-6.10473-.395-2.83618-.22424c-.5326.111-1.07129.21063-1.61133.30542-.52979.08575-1.0625.17187-1.59644.23431l-1.60449.11054a24.3975,24.3975,0,0,1-3.22034-.008,22.63158,22.63158,0,0,1-6.29931-1.24554c-2.032-.70594-3.99121-1.57862-5.939-2.42237-.97265-.42645-1.91736-.91577-2.87158-1.37L30.081,180.99415c-.88891-.57452-1.79077-1.11767-2.65673-1.71447-.85157-.62116-1.731-1.19019-2.54761-1.84967l-1.5824-1.28321-1.74048-1.05792a58.12843,58.12843,0,0,1-5.1123-3.69189A58.67841,58.67841,0,0,1,11.79356,167.07374Zm1.22815-68.85443c.69556-.84515,1.36279-1.7099,2.06958-2.53912l2.28442-2.34357,1.1333-1.1734,1.241-1.06128,2.46851-2.12445c.86108-.65881,1.76587-1.26166,2.64135-1.898a23.70171,23.70171,0,0,1,2.70362-1.79114l2.79968-1.63525a11.31074,11.31074,0,0,1,1.4408-.73657l1.46655-.68592,1.46277-.6922.7301-.34844c.249-.10248.50659-.18488.75928-.27869l3.03955-1.10767a23.71386,23.71386,0,0,1,3.09594-.92682L45.48777,78.05l3.1958-.53094,1.59888-.27582c.53223-.10132,1.07691-.09094,1.615-.14362l3.24243-.24017.812-.06207,1.45582-.02063,2.92675-.0387,1.45044-.01935.36133-.00482c.08618.02979.05164-.082.063-.14007l.00781-.20447.0315-.81592.127-3.235.11938-3.79559A53.27125,53.27125,0,0,1,65.23606,55.7632a54.56585,54.56585,0,0,1,5.75049-11.77845l1.93433-2.66595.96606-1.33661,1.08838-1.23791,2.18262-2.47712c.771-.78369,1.59912-1.51147,2.39575-2.2724a47.57491,47.57491,0,0,1,4.72681-3.9237,22.67469,22.67469,0,0,1,2.541-1.73242l2.6045-1.64991c1.03308-.45739,2.08337-.87469,3.11682-1.31585l1.55114-.65479c.51539-.22,1.06885-.34735,1.59961-.52612l3.13965-.99414c1.04285-.33331,2.13941-.48328,3.20093-.73779l1.60083-.34778.79871-.17548c.26867-.04614.5426-.06579.81335-.10028l3.24829-.38141c.54151-.05041,1.07581-.164,1.62183-.16479l1.633-.03076,3.2566-.07667c1.08386.04035,2.16577.15607,3.24633.22492l1.62.11591c.26941.02215.5404.03021.80859.06329l.79969.14044a53.85594,53.85594,0,0,1,6.34716,1.2771l3.126.83331,3.03577,1.11847,1.52185.54914c.50024.19952.97656.4566,1.46692.68042l2.93042,1.3767c.96814.47632,1.86828,1.08014,2.81042,1.60865a26.83084,26.83084,0,0,1,2.75415,1.71l2.647,1.88476.66431.47059.61475.53149,1.22888,1.06659c.80139.72986,1.68542,1.37927,2.42554,2.17511l2.24939,2.36438a23.27589,23.27589,0,0,1,2.10217,2.49737c.66284.86426,1.36047,1.70673,1.99853,2.59119l1.74952,2.76807.87646,1.38617.73157,1.46631,1.47021,2.93408c.43653,1.00177.79248,2.03839,1.19531,3.05646a49.59262,49.59262,0,0,1,1.94068,6.27679l.21826.79407c.06006.26745.094.54028.14246.81018l.27148,1.6242c.16687,1.08472.39807,2.16358.51624,3.25556l.24878,3.95379.16723,2.80567.02075.34881a1.04963,1.04963,0,0,0,.30982.01587l.65185-.00616,1.29932-.01233,2.583-.03021.6416-.00751.42322.013.82629.02765,3.3103.10651a25.75578,25.75578,0,0,1,3.29236.34332c1.0929.15851,2.19715.2677,3.28479.46411l3.22949.76965,1.61817.38318c.529.16181,1.048.35761,1.573.53449l3.14672,1.08636c1.03809.39105,2.02417.90863,3.041,1.3562l1.97217.89612c.63843.33527,1.25244.71674,1.88074,1.073l1.87732,1.08685.93847.54639.88159.6322c1.13453.90045,2.29639,1.76386,3.40564,2.6875l3.14319,2.98316a53.73783,53.73783,0,0,1,14.47461,48.68835c-.04736.269-.083.54034-.14014.80713l-.21789.79065-.43543,1.58008c-.31347,1.04553-.52734,2.12079-.92126,3.13891l-1.188,3.04767c-.20752.50317-.37195,1.02417-.61413,1.512l-.74378,1.45484-1.48022,2.9057-1.75977,2.7439-.87512,1.37072c-.2992.45148-.66235.85944-.98926,1.29114l-2.00439,2.55682a59.45221,59.45221,0,0,1-20.57447,15.407l-3.02319,1.17743-1.512.59741c-.51343.17041-1.04.29987-1.55957.45331l-3.12989.89984c-1.04773.2887-2.131.41437-3.1969.63544l-1.60693.30206a10.05433,10.05433,0,0,1-1.61816.23028l-3.266.28754c-.54956.04486-1.08289.111-1.64771.14075l-1.712.06891-3.42407.14666c-9.131.4264-18.26184.93207-27.3927,1.77485a1.90586,1.90586,0,0,0-.745.182c-.24988.16156.08374.342.745.40308,9.13086.84277,18.26172,1.34845,27.3927,1.77484l3.42407.14661,1.712.06891c.57617.01532,1.18213-.00727,1.77271-.01038l3.57324-.05786a11.5708,11.5708,0,0,0,1.78247-.13165l1.778-.21454c1.18189-.16663,2.38379-.24524,3.5531-.49469l3.50244-.80561c.58252-.14166,1.17237-.26123,1.74927-.4237l1.70337-.57947,3.40772-1.17633a55.917,55.917,0,0,0,22.809-17.15161l2.0968-2.92755c.33984-.49366.71435-.9632,1.0238-1.47638l.90271-1.55567,1.79456-3.10949,1.49182-3.264.74219-1.62994c.24084-.54566.40332-1.12421.60815-1.68433l1.16577-3.38324c.38452-1.1275.5874-2.31018.88916-3.46088l.41724-1.7362.20849-.86743c.05408-.29218.08643-.58869.13074-.88276a59.74988,59.74988,0,0,0-1.97742-28.09692A58.6848,58.6848,0,0,0,214.32823,88.8l-3.43518-2.99567c-1.20386-.92333-2.45826-1.782-3.68335-2.67224l-.898-.69867-.95728-.613-1.92114-1.22083c-.64429-.401-1.27539-.82739-1.93225-1.20788l-2.03186-1.03284c-1.05359-.51025-2.0791-1.08984-3.15991-1.54211l-3.28431-1.2674c-.54956-.2066-1.09362-.43176-1.64855-.62256l-1.69825-.46948-3.40307-.93573c-1.14795-.25024-2.31543-.41156-3.47449-.6203A28.42346,28.42346,0,0,0,179.303,72.413l-3.52954-.23889-.88343-.05872-.43176-.0282-.21435-.0075-.84131-.03016-.4126-.01239-.20435-.00616a.44609.44609,0,0,1-.09619-.00714l-.00085-.07861-.00549-.61408-.0011-.29773-.02881-.81451-.06677-1.7735c-.09339-1.178-.30249-2.34607-.45044-3.52094l-.24512-1.76068c-.04443-.29284-.07459-.58862-.131-.87921l-.20813-.864a53.983,53.983,0,0,0-1.90186-6.854c-.40307-1.11651-.76269-2.25268-1.20605-3.35431L166.942,47.97682l-.7555-1.618-.90136-1.54028L163.479,41.73372c-.65844-.9914-1.3789-1.94257-2.06738-2.91712a27.353,27.353,0,0,0-2.188-2.83111l-2.35644-2.70343c-.77954-.90924-1.70752-1.67249-2.55738-2.51587l-1.305-1.23639-.65552-.61591-.70691-.55475-2.83715-2.2163a29.16634,29.16634,0,0,0-2.98706-2.01093c-1.02723-.62274-2.01832-1.31415-3.08374-1.87085l-3.23926-1.59534c-.54419-.25634-1.07544-.54376-1.63208-.7716l-1.69385-.62775L132.774,18.03108c-1.15979-.32086-2.33264-.59955-3.49964-.89386a51.294,51.294,0,0,0-7.10449-1.21979l-.8927-.11779c-.29883-.025-.6-.0246-.89978-.03779l-1.7998-.05676c-1.19922-.02582-2.3971-.09137-3.59314-.07464l-3.58289.26873L109.615,16.041c-.59582.03949-1.18018.19348-1.7699.28583l-3.5216.65179c-.292.05853-.5868.10254-.876.17352l-.85937.25086-1.71534.50494c-1.13452.362-2.29712.62476-3.39819,1.07544L94.18333,20.343c-.55176.2453-1.1239.43982-1.65552.72766l-1.5935.86011c-1.05713.57941-2.12207,1.13745-3.15943,1.73779l-2.834,1.654a25.127,25.127,0,0,0-2.77478,1.75312,51.31075,51.31075,0,0,0-5.20276,4.01611c-.87793.78931-1.78711,1.54865-2.63879,2.36694L71.9011,36.04951l-1.20752,1.30188L69.60911,38.757l-2.16675,2.81848a59.05774,59.05774,0,0,0-6.60351,12.58368,61.98412,61.98412,0,0,0-3.49829,13.83539l-.13575,1.78528c-.0404.54217-.09814,1.41839-.1007,1.25757-.0719.126.08984.29651-.40125.21429l-.49731-.03869-.25623-.018-.89783.02429-3.59716.10523c-.59876.03412-1.20362.00732-1.798.09466l-1.786.24072-3.574.50232c-1.17359.26026-2.33887.56641-3.50782.85462a26.19053,26.19053,0,0,0-3.4646,1.0105L33.9326,75.27345c-.281.10761-.56665.20429-.84351.32153l-.81238.3946-1.62219.79388-1.61816.80011a13.17628,13.17628,0,0,0-1.58277.86243l-3.0531,1.92041A26.67229,26.67229,0,0,0,21.4824,82.473c-.94031.74554-1.90344,1.46154-2.81543,2.23645l-2.59936,2.4815-1.28919,1.24536-1.1698,1.36048L11.28709,92.521c-.71082.95709-1.374,1.95068-2.05689,2.92432a55.02167,55.02167,0,0,0-3.63232,6.12048A52.7449,52.7449,0,0,0,.12645,128.76332a1.8567,1.8567,0,0,0,.1444.74823c.14893.24976.34632-.08411.44056-.73962a60.64274,60.64274,0,0,1,8.498-25.19275A56.69076,56.69076,0,0,1,13.02171,98.21931Zm67.6355-42.66565-.00977.024a34.97712,34.97712,0,0,0-2.33887,18.04364.44278.44278,0,0,0,.87684,0A39.1315,39.1315,0,0,1,81.31175,65.304a36.56511,36.56511,0,0,1,3.79687-7.39374,2.69291,2.69291,0,0,0,.23047-.4353,2.53039,2.53039,0,0,0-4.68188-1.92133Zm29.59594-20.47027a23.03521,23.03521,0,0,0-9.72107.5177,20.37317,20.37317,0,0,0-4.59155,1.78058A21.15963,21.15963,0,0,0,91.9199,40.2209a4.27307,4.27307,0,0,0,4.75318,7.01965l.11254-.05694c1.16517-.58954,2.32642-1.13721,3.45264-1.73944,1.13062-.59565,2.24487-1.22126,3.37744-1.86713,2.27686-1.26538,4.65064-2.49133,7.24-3.777l.10022-.04956a2.48377,2.48377,0,0,0-.70276-4.667ZM216.64952,235.50215a11.01268,11.01268,0,0,0-4.84619-4.05975.27508.27508,0,0,0-.2345.01184.349.349,0,0,0-.1836.3974,28.60252,28.60252,0,0,1,1.4784,5.31292,21.38765,21.38765,0,0,1,.27453,4.82306,37.49727,37.49727,0,0,1-.54528,4.57941,11.22167,11.22167,0,0,1-1.72254,4.4173,15.05034,15.05034,0,0,1-5.395,4.76391l-1.3164.08692a20.85538,20.85538,0,0,1-4.82569-.35907,36.92393,36.92393,0,0,1-4.46142-1.14826,11.80662,11.80662,0,0,1-4.16236-2.28021,13.18685,13.18685,0,0,1-3.04785-3.836,14.07006,14.07006,0,0,1-1.61426-4.79754,10.70282,10.70282,0,0,1-.17431-1.68488,14.608,14.608,0,0,1,6.14123-9.60107,11.22111,11.22111,0,0,1,4.41736-1.72248,37.52958,37.52958,0,0,1,4.57935-.54535,21.391,21.391,0,0,1,4.823.2746,28.61328,28.61328,0,0,1,5.313,1.47846.33662.33662,0,0,0,.40918-.41816,11.0116,11.0116,0,0,0-4.05969-4.84613A14.19113,14.19113,0,0,0,201.322,224.018a13.07342,13.07342,0,0,0-6.63647.865,19.48853,19.48853,0,0,0-5.573,3.57269,18.30025,18.30025,0,0,0-3.94959,5.07239,17.39592,17.39592,0,0,0-1.78723,6.02368,18.2561,18.2561,0,0,0-.05493,2.01154c-.03162.20117-.05481.40417-.08081.60662-3.21838-.71-6.43677-1.17553-9.655-1.56243q-5.3205-.61011-10.64111-.85791-1.74316-.08689-3.48657-.11127l-.43592-.00531c-.00769-.00147-.004-.00348-.004-.00348l.00013-.00134a.07414.07414,0,0,1-.01941.01916.06183.06183,0,0,1-.05054.00842c-.022-.06018-.04907.22266-.08093-.64874-.19812-3.547-.431-7.094-.55579-10.64111L158.142,223.817c-.05628-1.05035-.11255-4.231-.16883-6.55145l-2.58618.05725-2.18286.06036-1.43725.06031-2.6604.12066-5.32056.24133-3.45313.18384-3.45312-.18384-10.64111-.48266-9.479-.35181-.07446-1.06286c-.06384-.74634-.12329-1.49268-.18384-2.239.06055-.74634.12-1.49261.18384-2.23895l.48266-6.89966.395-6.8996c.12476-2.29992.35767-4.59979.55579-6.89965a43.8965,43.8965,0,0,0,.02918-6.8996,68.97031,68.97031,0,0,0-.85791-6.89966q-.163-.87927-.3462-1.75848l.22412-3.20551.395-6.89966c.12476-2.29986.35767-4.59973.55579-6.89959a43.89726,43.89726,0,0,0,.02918-6.89966,68.96914,68.96914,0,0,0-.85791-6.8996c-.26368-1.42248-.569-2.845-.95435-4.26746.10889.0022.21655.01819.32556.018a13.0363,13.0363,0,0,0,6.46765-1.73529,20.41375,20.41375,0,0,0,5.05884-4.25879,16.98084,16.98084,0,0,0,4.23279-11.75116,14.24849,14.24849,0,0,0-.19483-2.0011,18.28545,18.28545,0,0,0-.05493-2.01153,17.40077,17.40077,0,0,0-1.78723-6.02369,18.30266,18.30266,0,0,0-3.94971-5.07238,19.48516,19.48516,0,0,0-5.573-3.57263,13.07383,13.07383,0,0,0-6.63648-.86512,14.1901,14.1901,0,0,0-6.17432,2.33118,11.0117,11.0117,0,0,0-4.05981,4.84619.27508.27508,0,0,0,.01184.2345.34912.34912,0,0,0,.39746.18365,28.61048,28.61048,0,0,1,5.31287-1.47845,21.391,21.391,0,0,1,4.823-.27466,37.5322,37.5322,0,0,1,4.57946.54535,11.22271,11.22271,0,0,1,4.41736,1.72253,14.61237,14.61237,0,0,1,6.14124,9.601,10.68861,10.68861,0,0,1-.17444,1.68487,14.07328,14.07328,0,0,1-1.614,4.79761,13.18831,13.18831,0,0,1-3.0481,3.83594,11.80451,11.80451,0,0,1-4.16235,2.28021,36.91854,36.91854,0,0,1-4.46143,1.14831,20.85476,20.85476,0,0,1-4.82568.359l-1.31641-.08691a15.05138,15.05138,0,0,1-5.395-4.76392,11.21916,11.21916,0,0,1-1.72241-4.41729,37.49417,37.49417,0,0,1-.54541-4.57941,21.38089,21.38089,0,0,1,.27466-4.82306,28.6,28.6,0,0,1,1.47839-5.31287.33673.33673,0,0,0-.41809-.40924,11.01043,11.01043,0,0,0-4.84619,4.05976,14.19173,14.19173,0,0,0-2.3313,6.17437,13.07394,13.07394,0,0,0,.86523,6.63642,19.4862,19.4862,0,0,0,3.57264,5.57312,18.3035,18.3035,0,0,0,5.07238,3.94958,17.81829,17.81829,0,0,0,2.73511,1.11573c.46094.2901.93262.58837,1.42359.85455a13.611,13.611,0,0,0,3.93359,1.27118c-.41455,1.494-.73584,2.98791-1.01294,4.48187a68.99839,68.99839,0,0,0-.85791,6.8996,43.9263,43.9263,0,0,0,.0293,6.89966c.198,2.29986.4309,4.59973.55578,6.89959l.3949,6.89966.22437,3.20563q-.185.87918-.34644,1.75836a68.99957,68.99957,0,0,0-.85791,6.89966,43.92553,43.92553,0,0,0,.0293,6.8996c.198,2.29986.4309,4.59973.55578,6.89965l.3949,6.8996.48267,6.89966c.064.74634.12341,1.49261.18383,2.23895-.06042.74634-.11987,1.49268-.18383,2.239l-.06495.93017c-2.913-.13049-5.82592-.30359-8.73877-.46625a104.35542,104.35542,0,0,0-10.64111-.02923q-5.3205.25689-10.64111.85791l-2.712.34631-2.47192-.11212-1.40173-.056-2.03-.05609-2.58631-.05725c-.05627,2.32043-.11255,5.5011-.16882,6.55139L72.134,228.3658c-.12475,3.547-.35766,7.094-.55566,10.64111-.032.87134-.059.58868-.08093.6488a.06211.06211,0,0,1-.05066-.00842.072.072,0,0,1-.01929-.01916v.00134s.00378.002-.00391.00348l-.43579.00531q-1.74334.0249-3.48657.11127-5.32068.25689-10.64111.85791c-3.21839.3869-6.43677.85241-9.655,1.56243-.02612-.20245-.04932-.40545-.08081-.60662a18.28839,18.28839,0,0,0-.05506-2.01154A17.39808,17.39808,0,0,0,45.282,233.528a18.30365,18.30365,0,0,0-3.94958-5.07239,19.48763,19.48763,0,0,0-5.57312-3.57269,13.07363,13.07363,0,0,0-6.63648-.865,14.19069,14.19069,0,0,0-6.17431,2.33117,11.01142,11.01142,0,0,0-4.0597,4.8462.27463.27463,0,0,0,.01185.23449.349.349,0,0,0,.39746.1836,28.60877,28.60877,0,0,1,5.31274-1.4784,21.39221,21.39221,0,0,1,4.82312-.27472,37.54433,37.54433,0,0,1,4.57935.54541,11.22081,11.22081,0,0,1,4.41735,1.72248A14.615,14.615,0,0,1,44.572,241.7292a10.70176,10.70176,0,0,1-.17444,1.68488,14.07341,14.07341,0,0,1-1.61413,4.7976,13.18619,13.18619,0,0,1-3.0481,3.83594,11.80394,11.80394,0,0,1-4.16223,2.28015,36.92068,36.92068,0,0,1-4.46155,1.14838,20.85477,20.85477,0,0,1-4.82556.359l-1.31641-.087a15.05315,15.05315,0,0,1-5.39514-4.76385A11.22123,11.22123,0,0,1,17.852,246.567a37.52112,37.52112,0,0,1-.54541-4.57941,21.38794,21.38794,0,0,1,.27466-4.82306,28.61342,28.61342,0,0,1,1.47851-5.31292.33676.33676,0,0,0-.41821-.40924,11.012,11.012,0,0,0-4.84619,4.05975,14.19085,14.19085,0,0,0-2.33118,6.17438,13.07528,13.07528,0,0,0,.86512,6.63647,19.48247,19.48247,0,0,0,3.57275,5.57306,18.30023,18.30023,0,0,0,5.07227,3.94959,17.81944,17.81944,0,0,0,2.7351,1.11578c.46106.2901.93262.58838,1.42371.85455a14.07629,14.07629,0,0,0,6.42663,1.5036,13.03654,13.03654,0,0,0,6.46753-1.73535,20.40989,20.40989,0,0,0,5.05884-4.25873,16.9817,16.9817,0,0,0,4.23291-11.75116c-.00183-.12231-.01636-.2431-.0227-.36492,3.188.69848,6.37573,1.15954,9.56372,1.54278q5.3203.61011,10.64111.858,1.74316.087,3.48657.11127l3.04688.01007,3.46728-.0191-.05053-3.6764c-.022-1.16253-.04908-2.66784-.08106-3.0191-.198-3.54706-.43091-7.09412-.55566-10.64111l-.16883-4.54883a22.26166,22.26166,0,0,0-.16882-2.54614l.50073-.05732.442-.056c.05017-.0047.05237-.00933.14319-.014l.30908-.014.61792-.028,2.47192-.11218,2.71192.34631q5.3205.61011,10.64111.858a104.37271,104.37271,0,0,0,10.64111-.0293c2.7992-.15631,5.59839-.32074,8.39759-.4502l-.07654,1.09375-.3949,6.89966c-.12488,2.29987-.35779,4.59973-.55578,6.8996a43.92626,43.92626,0,0,0-.0293,6.89966,68.9982,68.9982,0,0,0,.85791,6.89959c.26269,1.41657.56665,2.83319.94971,4.24976a14.17873,14.17873,0,0,0-6.05494,2.30859A11.0117,11.0117,0,0,0,103.99,261.8108a.27508.27508,0,0,0,.01184.2345.349.349,0,0,0,.39746.1836,28.61011,28.61011,0,0,1,5.31287-1.4784,21.38754,21.38754,0,0,1,4.823-.27466,37.53417,37.53417,0,0,1,4.57946.54535,11.22246,11.22246,0,0,1,4.41736,1.72248,14.61253,14.61253,0,0,1,6.14124,9.60107,10.68859,10.68859,0,0,1-.17444,1.68481,14.07353,14.07353,0,0,1-1.614,4.79767,13.189,13.189,0,0,1-3.0481,3.83594,11.80341,11.80341,0,0,1-4.16235,2.28015,36.90742,36.90742,0,0,1-4.46143,1.14832,20.852,20.852,0,0,1-4.82568.35907l-1.31641-.087a15.05189,15.05189,0,0,1-5.395-4.76385,11.21987,11.21987,0,0,1-1.72241-4.41736,37.49461,37.49461,0,0,1-.54541-4.57935,21.381,21.381,0,0,1,.27466-4.82306,28.60167,28.60167,0,0,1,1.47839-5.31292.33673.33673,0,0,0-.41809-.40924,11.01126,11.01126,0,0,0-4.84619,4.05975,14.1921,14.1921,0,0,0-2.3313,6.17438,13.074,13.074,0,0,0,.86523,6.63647,19.48576,19.48576,0,0,0,3.57264,5.57306,18.3026,18.3026,0,0,0,5.07238,3.94959,17.81322,17.81322,0,0,0,2.73511,1.11572c.46094.2901.93262.58844,1.42359.85461a14.077,14.077,0,0,0,6.42663,1.5036,13.037,13.037,0,0,0,6.46765-1.73535,20.41224,20.41224,0,0,0,5.05884-4.25873,16.98084,16.98084,0,0,0,4.23279-11.75116,14.2482,14.2482,0,0,0-.19483-2.00109,18.28523,18.28523,0,0,0-.05493-2.01154,17.40066,17.40066,0,0,0-1.78723-6.02368,18.30168,18.30168,0,0,0-3.94971-5.07239,19.48683,19.48683,0,0,0-5.573-3.57269,13.1734,13.1734,0,0,0-4.488-.96057c.36743-1.3772.662-2.75446.91724-4.13166a68.969,68.969,0,0,0,.85791-6.89959,43.89722,43.89722,0,0,0-.02918-6.89966c-.19812-2.29987-.431-4.59973-.55579-6.8996l-.395-6.89966-.08764-1.25439,9.15845-.33985,10.64111-.48272,3.45312-.18384,3.45313.18384,5.32056.24139,2.6604.12067,1.22277.06036.47742.0603.50086.05732a22.26473,22.26473,0,0,0-.16883,2.5462l-.16882,4.54883c-.12488,3.54706-.35779,7.09411-.55579,10.64111-.03186.35126-.05883,1.85669-.08081,3.01917l-.05066,3.67627,3.46729.0191,3.047-.01007q1.74317-.0249,3.48657-.11127,5.32068-.25689,10.64111-.858c3.18787-.38324,6.37573-.8443,9.56348-1.54278-.00611.12182-.02075.24261-.02246.36492a16.98167,16.98167,0,0,0,4.23266,11.75116,20.418,20.418,0,0,0,5.059,4.25879,13.03582,13.03582,0,0,0,6.46765,1.73523,14.07589,14.07589,0,0,0,6.42652-1.50354c.491-.26617.96264-.56445,1.42383-.85461a17.81159,17.81159,0,0,0,2.73486-1.11572,18.30393,18.30393,0,0,0,5.07251-3.94953,19.48942,19.48942,0,0,0,3.57263-5.57312,13.07258,13.07258,0,0,0,.86511-6.63647A14.19382,14.19382,0,0,0,216.64952,235.50215Zm29.01355-86.42847a27.08806,27.08806,0,0,0-.56409-2.72046,18.88094,18.88094,0,0,0-1.01416-2.6596.28739.28739,0,0,0-.18506-.142.373.373,0,0,0-.42126.14032,21.78036,21.78036,0,0,0-1.14527,2.53113c-.33838.82953-.65857,1.64691-.9364,2.45813-.58618,1.61865-1.07324,3.2113-1.56128,4.78857-.21814.79364-.43689,1.58191-.62195,2.37848-.16821.80054-.30859,1.60754-.45556,2.41815a34.86825,34.86825,0,0,1-.99524,4.87665c-.45593,1.60046-1.00623,3.17584-1.60169,4.74316l-.85669,2.18256-.94751.9353q-.87671.93449-1.74047,1.85511-.83313.93438-1.65845,1.85992a35.36793,35.36793,0,0,0-2.9657,3.925c-.46472.68072-.90149,1.393-1.3905,2.06433-.49768.66321-.99317,1.33588-1.5315,1.97034l-1.66321,1.86755-1.75659,1.792-1.81482,1.75312c-.61523.57708-1.26513,1.11377-1.90039,1.67669-.40088.38214-.83984.71143-1.26465,1.06482l-1.48681.72211-2.311,1.04047-2.34729.92614c-1.56738.59546-3.1427,1.14588-4.74328,1.60181a34.87265,34.87265,0,0,1-4.87659.99518c-.81067.147-1.61755.28729-2.41809.45563-.79663.18512-1.58484.4038-2.37854.62194-1.57727.488-3.16992.975-4.78858,1.56122-.81115.2779-1.62854.59809-2.45813.93634a21.79071,21.79071,0,0,0-2.531,1.14545.3082.3082,0,0,0-.14038.19214.356.356,0,0,0,.14184.41406,18.88048,18.88048,0,0,0,2.65967,1.01416,27.07853,27.07853,0,0,0,2.72046.56415,24.397,24.397,0,0,0,5.49268.1347,14.947,14.947,0,0,0,2.70385-.43316,15.68527,15.68527,0,0,0,2.61182-.8266c1.70435-.67267,3.344-1.48743,4.985-2.24213,1.64074-.76306,3.23046-1.618,4.78747-2.512l2.26978-1.44892,2.1903-1.54773,1.355-1.08911c.51453-.26208,1.0448-.50415,1.54517-.79388.767-.45136,1.55457-.88153,2.31262-1.35754l2.2583-1.46668,2.16822-1.60754,2.0957-1.71436c.68066-.59363,1.36169-1.19153,2.064-1.77545.69361-.59192,1.35425-1.2204,2.03394-1.83783a18.581,18.581,0,0,0,3.343-4.31781,21.63877,21.63877,0,0,0,1.21313-2.4646,19.9351,19.9351,0,0,0,.93408-2.59375c.12867-.45343.2577-.90381.36426-1.36316l1.34278-2.11182c.894-1.55706,1.7489-3.14685,2.512-4.78753.75476-1.641,1.56946-3.28058,2.24219-4.98493a15.68081,15.68081,0,0,0,.82653-2.61187,14.94884,14.94884,0,0,0,.43323-2.70392A24.397,24.397,0,0,0,245.66307,149.07368ZM41.82688,60.06a19.923,19.923,0,0,0,1.07044,2.80725.30342.30342,0,0,0,.19531.14984.39372.39372,0,0,0,.44458-.14813,22.98864,22.98864,0,0,0,1.209-2.67157c.35705-.87555.69494-1.73834.98828-2.5946.61877-1.70844,1.13281-3.38947,1.64782-5.05426.23023-.83771.46119-1.66968.6565-2.5105.17773-.845.32568-1.69672.481-2.55231a36.80693,36.80693,0,0,1,1.05041-5.14734c.4812-1.68927,1.06213-3.352,1.69067-5.00641l.90418-2.30365,1-.98724,1.837-1.958q.87909-.98583,1.75061-1.96319a37.34908,37.34908,0,0,0,3.13024-4.14283c.49061-.71856.95154-1.47033,1.46778-2.17889.52514-.70007,1.04822-1.41,1.61633-2.07971l1.75562-1.97119,1.854-1.89154,1.91553-1.85041c.64941-.60913,1.33545-1.17553,2.00586-1.76971.42321-.40338.88647-.75092,1.335-1.1239l1.56909-.76221,2.43945-1.0982,2.47754-.97754c1.6543-.62854,3.31714-1.20948,5.00635-1.69068a36.80825,36.80825,0,0,1,5.14746-1.05041c.85547-.15521,1.70728-.30323,2.55225-.481.84082-.19531,1.67285-.42621,2.51049-.65637,1.6648-.51514,3.34583-1.02918,5.05433-1.64789.85632-.29333,1.719-.63135,2.5946-.98834a23.00858,23.00858,0,0,0,2.67151-1.209.32489.32489,0,0,0,.14807-.20282.37577.37577,0,0,0-.1499-.43707A19.92308,19.92308,0,0,0,101.0471.8398,28.5586,28.5586,0,0,0,98.17576.2444,25.75115,25.75115,0,0,0,92.3784.10219,15.77078,15.77078,0,0,0,89.52427.5594a16.55868,16.55868,0,0,0-2.75671.87244c-1.79907.71-3.52954,1.57-5.26172,2.36657-1.73169.80542-3.40967,1.70777-5.05322,2.65137l-2.39575,1.5293L71.7451,9.61275l-1.43018,1.14953c-.54309.27667-1.10278.53217-1.63086.83795-.80957.47638-1.64087.93048-2.44092,1.43293l-2.38366,1.548L61.571,16.278l-2.21216,1.80945c-.71851.62658-1.43726,1.25763-2.17847,1.874-.73218.62469-1.42944,1.28809-2.14673,1.93982a19.61826,19.61826,0,0,0-3.52881,4.55737,22.82791,22.82791,0,0,0-1.28027,2.60144,21.04029,21.04029,0,0,0-.986,2.73767c-.13574.47864-.272.954-.3844,1.43878l-1.41736,2.22907c-.9436,1.64343-1.846,3.32147-2.65137,5.05322-.79663,1.732-1.65661,3.46265-2.36657,5.26154a16.5514,16.5514,0,0,0-.87244,2.75683,15.77827,15.77827,0,0,0-.45728,2.854,25.7592,25.7592,0,0,0,.14222,5.79742A28.57943,28.57943,0,0,0,41.82688,60.06Z"/></svg>
