<svg version="1.1" id="Layer_1" xmlns="http://www.w3.org/2000/svg" xmlns:xlink="http://www.w3.org/1999/xlink" x="0px" y="0px"
	 viewBox="0 0 250 124.07089" style="enable-background:new 0 0 250 124.07089;" xml:space="preserve">
<style type="text/css">
	.st0{display:none;}
	.st1{display:inline;fill:#FFFFFF;stroke:#000000;stroke-width:2;stroke-miterlimit:10;}
	.st2{display:inline;fill:none;stroke:#000000;stroke-width:2;stroke-miterlimit:10;}
	.st3{display:inline;}
	.st4{fill:#FFFFFF;stroke:#000000;stroke-width:2;stroke-miterlimit:10;}
	.st5{fill:#FFFFFF;}
	.st6{display:inline;fill:none;stroke:#FFFFFF;stroke-width:2;stroke-linecap:round;stroke-linejoin:round;stroke-miterlimit:10;}
	.st7{fill:none;stroke:#000000;stroke-width:2;stroke-miterlimit:10;}
	.st8{display:inline;fill:#FFFFFF;}
	.st9{fill:#FFFFFF;stroke:#000000;stroke-width:2;stroke-linecap:round;stroke-linejoin:round;stroke-miterlimit:10;}
	.st10{stroke:#000000;stroke-linecap:round;stroke-linejoin:round;stroke-miterlimit:10;}
	.st11{display:inline;fill:none;stroke:#000000;stroke-width:2;stroke-linecap:round;stroke-linejoin:round;stroke-miterlimit:10;}
	
		.st12{display:inline;fill:#FFFFFF;stroke:#000000;stroke-width:2;stroke-linecap:round;stroke-linejoin:round;stroke-miterlimit:10;}
	.st13{display:inline;stroke:#000000;stroke-width:0.5;stroke-linecap:round;stroke-linejoin:round;stroke-miterlimit:10;}
	.st14{stroke:#000000;stroke-width:2;stroke-linecap:round;stroke-linejoin:round;stroke-miterlimit:10;}
	.st15{fill:none;stroke:#000000;stroke-width:4;stroke-linecap:round;stroke-linejoin:round;stroke-miterlimit:10;}
	.st16{fill:#FFFFFF;stroke:#000000;stroke-width:1.5;stroke-linecap:round;stroke-linejoin:round;stroke-miterlimit:10;}
	.st17{fill:none;stroke:#000000;stroke-width:1.5;stroke-miterlimit:10;}
	.st18{fill:none;stroke:#000000;stroke-width:1.5;stroke-linecap:round;stroke-linejoin:round;stroke-miterlimit:10;}
	.st19{fill:#00292F;}
	.st20{fill:#2793DB;}
	.st21{fill:#FFCC1F;}
	.st22{fill:#005994;}
	.st23{fill:#00547D;}
	.st24{fill:#001824;}
	.st25{fill:#17B3FF;}
	.st26{fill:#0A211E;}
	.st27{fill:#1D6340;}
	.st28{fill:#247A4F;}
	.st29{fill:#164D31;}
	.st30{fill:#995F00;}
	.st31{fill:#245412;}
	.st32{fill:#9E9E9E;}
	.st33{fill:#D1D1D1;}
	.st34{fill:#E3FF00;}
	.st35{fill:#FB0000;}
	.st36{fill:#0C0E0F;}
	.st37{fill:#8C9699;}
	.st38{fill:#2A2D2E;}
	.st39{fill:#545A5C;}
	.st40{fill:#6E7678;}
	.st41{fill:#3B3F40;}
	.st42{fill:#424547;}
	.st43{fill:#616466;}
	.st44{fill:#0C0C0D;}
	.st45{fill:#1D1D1F;}
	.st46{fill:#262829;}
	.st47{fill:#A5B0B3;}
	.st48{fill:#5C6163;}
	.st49{fill:#252026;}
	.st50{fill:#3E3540;}
	.st51{fill:#544857;}
	.st52{fill:#F7114E;}
	.st53{fill:#695C6E;}
	.st54{fill:#070308;}
	.st55{fill:#18132B;}
	.st56{fill:#938EC2;}
	.st57{fill:#696399;}
	.st58{fill:#2D2854;}
	.st59{fill:#4D4970;}
</style>
<g class="st0">
</g>
<path id="path-01_00000065052981019282117470000011647518724811875500_" d="M182.33224,99.15981h5.05858l21.83301,21.83208
	c0.35449,0.35449,0.8353,0.55364,1.33664,0.55364h12.92805c0.02101,0.00069,0.04063,0.012,0.06165,0.012
	c0.021,0,0.04062-0.01131,0.06163-0.012h12.96962c0.84962,1.78273,2.84198,2.91682,5.04274,2.39975
	c1.53065-0.35963,2.80116-1.58718,3.19595-3.10915c0.76472-2.94813-1.43999-5.59756-4.26299-5.59756
	c-1.7592,0-3.26566,1.03646-3.97571,2.5249h-12.26025l-21.84372-21.84371c-0.35472-0.35473-0.83583-0.55401-1.33749-0.55401
	h-18.80771c-1.0477,0-1.89702,0.84933-1.89702,1.89702v0.00001C180.43523,98.31049,181.28455,99.15981,182.33224,99.15981z
	 M218.97311,117.76348h-7.62965L192.72687,99.1478h7.63057L218.97311,117.76348z M249.99998,86.27585
	c0.00662,2.70264-2.41437,4.84187-5.20471,4.35907c-1.52155-0.26327-2.8228-1.39505-3.35435-2.84483
	c-0.41399-1.12912-0.32283-2.19376,0.04164-3.11858L227.7708,70.95975h-12.9389l11.12845,11.12846
	c1.13805-0.35354,2.40698-0.40515,3.96523,0.8577c1.02655,0.83195,1.76414,2.06049,1.75218,3.38179
	c-0.02449,2.70847-2.4873,4.83471-5.29959,4.28987c-1.51993-0.29446-2.80917-1.45202-3.2988-2.92075
	c-0.36734-1.10189-0.27444-2.14621,0.08946-3.05209l-13.68498-13.68498h-13.02756v2.12302h-14.12404
	c-1.0477,0-1.89702-0.84933-1.89702-1.89703v-4.2338c0-1.0477,0.84932-1.89703,1.89702-1.89703h14.12404v2.12279h13.81056h18.28647
	c0.50166,0,0.98277,0.19928,1.33751,0.55401l14.36502,14.36504c1.09448-0.34764,2.31657-0.41203,3.78754,0.67973
	C249.16458,83.60864,249.99657,84.87958,249.99998,86.27585z M182.33224,28.70536h18.8082
	c0.50134,0,0.98216-0.19916,1.33667-0.55367l21.84406-21.84406h12.26048c0.85008,1.78197,2.84131,2.91579,5.04166,2.39927
	c1.53084-0.35936,2.80162-1.58687,3.19664-3.1089C245.58517,2.64952,243.38034,0,240.55713,0
	c-1.75967,0-3.26611,1.03669-3.97594,2.5256H223.6118c-0.04201-0.00139-0.08125-0.00139-0.12328,0h-12.92754
	c-0.50166,0-0.98279,0.19928-1.33754,0.55401l-21.83263,21.83171h-5.05858c-1.0477,0-1.89702,0.84933-1.89702,1.89702v0
	C180.43523,27.85604,181.28455,28.70536,182.33224,28.70536z M211.34346,6.30764h7.62965l-18.61568,18.61568h-7.63057
	L211.34346,6.30764z M180.43523,38.86638c0-1.0477,0.84932-1.89702,1.89702-1.89702h14.12404v2.04799h8.83463l19.82295-19.82365
	c-0.36559-1.08768-0.43381-2.31357,0.54378-3.74295c0.79253-1.15879,2.05919-2.01988,3.46217-2.07008
	c2.71278-0.09707,4.90393,2.25377,4.53819,5.01635c-0.19362,1.46258-1.20529,2.74057-2.53598,3.37767
	c-1.24487,0.59602-2.38647,0.51638-3.384,0.14267l-20.3271,20.32803c-0.35471,0.35473-0.83582,0.55401-1.33746,0.55401h-9.61717
	v2.19781h-14.12404c-1.0477,0-1.89702-0.84933-1.89702-1.89702V38.86638z M180.43523,52.88515
	c0-1.0477,0.84932-1.89702,1.89702-1.89702h14.12404v2.12325h13.02756l13.68498-13.68498
	c-0.36513-0.90892-0.45743-1.95794-0.08574-3.06275c0.4928-1.46481,1.78102-2.61792,3.29851-2.91076
	c2.80255-0.54084,5.25713,1.57065,5.2959,4.26631c0.01895,1.31717-0.71112,2.54401-1.72832,3.38102
	c-1.56761,1.28992-2.84514,1.23789-3.9886,0.88247l-11.12868,11.12868h12.9389l13.71199-13.71199
	c-0.36189-0.91721-0.45418-1.97116-0.05212-3.09262c0.52237-1.45707,1.82283-2.59789,3.34705-2.86748
	c2.80595-0.4963,5.24319,1.66031,5.22215,4.37964c-0.01085,1.4007-0.85182,2.67319-1.98337,3.49883
	c-1.46335,1.06772-2.67337,1.00179-3.76065,0.65662l-14.36502,14.36503c-0.35474,0.35473-0.83585,0.55401-1.33751,0.55401h-18.28647
	h-13.81056v2.12278h-14.12404c-1.0477,0-1.89702-0.84933-1.89702-1.89702V52.88515z M180.43523,81.01827
	c0-1.0477,0.84932-1.89703,1.89702-1.89703h14.12404v2.15048h9.61717c0.50165,0,0.98276,0.19929,1.33746,0.55402l20.3271,20.32803
	c0.99808-0.37457,2.14252-0.45248,3.38623,0.1429c1.32881,0.63612,2.33842,1.91238,2.53316,3.37266
	c0.36754,2.75621-1.80971,5.10358-4.51225,5.02198c-1.40074-0.0423-2.66869-0.89526-3.46837-2.04609
	c-0.99657-1.43417-0.93149-2.67254-0.56316-3.76779l-19.82272-19.82365h-8.83463v2.09554h-14.12404
	c-1.0477,0-1.89702-0.84933-1.89702-1.89703V81.01827z M67.66776,24.91132h-5.05857L40.77655,3.07961
	C40.4218,2.72488,39.94068,2.5256,39.43901,2.5256H26.51147c-0.04201-0.00139-0.08125-0.00139-0.12327,0H13.41881
	c-0.84968-1.78226-2.84083-2.91656-5.04144-2.40036c-1.53102,0.35913-2.80206,1.5866-3.19722,3.10872
	c-0.7655,2.94863,1.4394,5.59836,4.26271,5.59836c1.75921,0,3.26543-1.03623,3.97549-2.52467h12.26048L47.52289,28.1517
	c0.35451,0.35451,0.83532,0.55367,1.33667,0.55367h18.80819c1.0477,0,1.89703-0.84933,1.89703-1.89702v0
	C69.56478,25.76064,68.71545,24.91132,67.66776,24.91132z M31.02688,6.30764h7.62965l18.6166,18.61568h-7.63057L31.02688,6.30764z
	 M67.66776,95.36576H48.85956c-0.50135,0-0.98216,0.19916-1.33667,0.55367l-21.84406,21.84406H13.41858
	c-0.85008-1.78195-2.8416-2.9161-5.0418-2.39948c-1.53084,0.35944-2.80155,1.58704-3.19668,3.10905
	c-0.76537,2.94821,1.43949,5.59783,4.26276,5.59783c1.75944,0,3.26612-1.03646,3.97572-2.52536H26.3882
	c0.02101,0.00069,0.04063,0.012,0.06163,0.012c0.02101,0,0.04063-0.01131,0.06163-0.012h12.92807
	c0.50134,0,0.98214-0.19915,1.33664-0.55364l21.83301-21.83208h5.05857c1.0477,0,1.89703-0.84932,1.89703-1.89702v-0.00001
	C69.56478,96.21509,68.71545,95.36576,67.66776,95.36576z M38.65653,117.76348h-7.62965L49.64256,99.1478h7.63057
	L38.65653,117.76348z M69.56478,85.20475c0,1.04769-0.84933,1.89702-1.89703,1.89702H53.54372v-2.04799H44.7091l-19.82296,19.82296
	c0.36573,1.0881,0.43387,2.31593-0.54494,3.74539c-0.79395,1.15949-2.06297,2.02028-3.46741,2.06856
	c-2.71573,0.09335-4.90677-2.26642-4.52935-5.03493c0.19947-1.46323,1.21649-2.73978,2.55215-3.36973
	c1.23879-0.58427,2.37314-0.50398,3.36493-0.13271l20.32791-20.32792c0.35451-0.3545,0.83532-0.55367,1.33667-0.55367h9.61762
	v-2.19804h14.12403c1.0477,0,1.89703,0.84933,1.89703,1.89703V85.20475z M69.56478,71.18574
	c0,1.0477-0.84933,1.89703-1.89703,1.89703H53.54372v-2.12302H40.51616L26.83118,84.64473
	c0.36391,0.90588,0.45681,1.9502,0.08947,3.05209c-0.48963,1.46873-1.77887,2.62629-3.29881,2.92075
	c-2.81229,0.54484-5.2751-1.5814-5.29959-4.28987c-0.01195-1.3213,0.72564-2.54984,1.7522-3.38179
	c1.55824-1.26286,2.82718-1.21124,3.96522-0.8577l11.12846-11.12846H22.2292L8.51744,84.67151
	c0.36456,0.92503,0.45568,1.98991,0.0414,3.11929c-0.53181,1.44976-1.83333,2.58138-3.35501,2.84429
	c-2.79031,0.48212-5.21047-1.65694-5.20381-4.35929c0.00344-1.39619,0.83533-2.66705,1.95644-3.49919
	c1.47105-1.0919,2.69319-1.02751,3.7877-0.67986l14.36503-14.36504c0.35473-0.35473,0.83584-0.55401,1.3375-0.55401h18.28648
	h13.81056v-2.12279h14.12403c1.0477,0,1.89703,0.84933,1.89703,1.89703V71.18574z M69.56478,57.11918
	c0,1.0477-0.84933,1.89702-1.89703,1.89702H53.54372v-2.12278H39.73316H21.44668c-0.50166,0-0.98277-0.19928-1.3375-0.55401
	L5.74415,41.97438c-1.08732,0.34518-2.29739,0.41111-3.7608-0.65674c-1.13146-0.82562-1.97235-2.09803-1.98321-3.49865
	c-0.02108-2.71902,2.41528-4.87547,5.2212-4.37989c1.52435,0.26923,2.82509,1.40986,3.34773,2.86691
	c0.40237,1.12174,0.31012,2.17596-0.05187,3.09338L22.2292,53.11137h12.93892L24.03943,41.98269
	c-1.14347,0.35542-2.42098,0.40745-3.9886-0.88247c-1.0172-0.83701-1.74727-2.06385-1.72832-3.38102
	c0.03878-2.69566,2.49335-4.80715,5.29589-4.26631c1.51748,0.29284,2.80571,1.44595,3.29851,2.91076
	c0.37169,1.1048,0.2794,2.15383-0.08574,3.06275l13.68499,13.68498h13.02756v-2.12325h14.12403
	c1.0477,0,1.89703,0.84933,1.89703,1.89702V57.11918z M69.56478,43.05262c0,1.0477-0.84933,1.89702-1.89703,1.89702H53.54372
	v-2.15025H43.9261c-0.50135,0-0.98216-0.19916-1.33667-0.55367L22.26128,21.91758c-0.99567,0.3729-2.13614,0.45323-3.38072-0.14156
	c-1.33172-0.63643-2.34436-1.91473-2.53842-3.3779c-0.3666-2.76406,1.82649-5.11625,4.54099-5.01735
	c1.40357,0.05114,2.67062,0.91322,3.46225,2.07337c0.97444,1.42806,0.90597,2.65312,0.54076,3.74025L44.7091,39.01735h8.83462
	V36.9218h14.12403c1.0477,0,1.89703,0.84933,1.89703,1.89702V43.05262z M178.54419,106.18835V17.88185
	c0-5.17815-4.21324-9.39048-9.39139-9.39048h-88.3056c-5.17815,0-9.3914,4.21233-9.3914,9.39048v88.30651
	c0,5.17815,4.21325,9.39048,9.3914,9.39048h88.3056C174.33095,115.57883,178.54419,111.36651,178.54419,106.18835z
	 M162.16026,106.83009H87.83974c-4.21648,0-7.63496-3.41824-7.63496-7.63519V24.876c0-4.21671,3.41847-7.63496,7.63496-7.63496
	h74.32052c4.21648,0,7.63495,3.41825,7.63495,7.63496v74.31889C169.79521,103.41184,166.37674,106.83009,162.16026,106.83009z"/>
</svg>
